<?xml version="1.0" encoding="utf-8" standalone="no"?>
<!DOCTYPE svg PUBLIC "-//W3C//DTD SVG 1.1//EN"
  "http://www.w3.org/Graphics/SVG/1.1/DTD/svg11.dtd">
<svg xmlns:xlink="http://www.w3.org/1999/xlink" width="864pt" height="504pt" viewBox="0 0 864 504" xmlns="http://www.w3.org/2000/svg" version="1.1">
 <metadata>
  <rdf:RDF xmlns:dc="http://purl.org/dc/elements/1.1/" xmlns:cc="http://creativecommons.org/ns#" xmlns:rdf="http://www.w3.org/1999/02/22-rdf-syntax-ns#">
   <cc:Work>
    <dc:type rdf:resource="http://purl.org/dc/dcmitype/StillImage"/>
    <dc:date>2026-03-01T22:14:54.663697</dc:date>
    <dc:format>image/svg+xml</dc:format>
    <dc:creator>
     <cc:Agent>
      <dc:title>Matplotlib v3.10.8, https://matplotlib.org/</dc:title>
     </cc:Agent>
    </dc:creator>
   </cc:Work>
  </rdf:RDF>
 </metadata>
 <defs>
  <style type="text/css">*{stroke-linejoin: round; stroke-linecap: butt}</style>
 </defs>
 <g id="figure_1">
  <g id="patch_1">
   <path d="M 0 504 
L 864 504 
L 864 0 
L 0 0 
L 0 504 
z
" style="fill: none"/>
  </g>
  <g id="axes_1">
   <g id="patch_2">
    <path d="M 29.08774 464.975236 
L 860.99976 464.975236 
L 860.99976 35.732595 
L 29.08774 35.732595 
z
" style="fill: #ffffff"/>
   </g>
   <g id="FillBetweenPolyCollection_1">
    <defs>
     <path id="m1bb7bca332" d="M 66.901923 -128.829585 
L 66.901923 -128.829585 
L 142.530288 -127.651207 
L 218.158654 -134.323541 
L 293.787019 -144.423286 
L 369.415385 -169.816734 
L 445.04375 -192.361343 
L 520.672115 -164.049527 
L 564.911873 -213.750739 
L 596.300481 -228.134035 
L 671.928846 -281.798802 
L 747.557212 -333.03694 
L 823.185577 -388.554178 
L 823.185577 -414.79734 
L 823.185577 -414.79734 
L 747.557212 -359.39076 
L 671.928846 -300.540419 
L 596.300481 -245.314419 
L 564.911873 -224.711613 
L 520.672115 -224.235144 
L 445.04375 -207.291895 
L 369.415385 -183.644579 
L 293.787019 -148.786926 
L 218.158654 -135.615292 
L 142.530288 -128.908829 
L 66.901923 -128.829585 
z
"/>
    </defs>
    <g clip-path="url(#p9043316d5a)">
     <use xlink:href="#m1bb7bca332" x="0" y="504" style="fill: #1f77b4; fill-opacity: 0.15"/>
    </g>
   </g>
   <g id="matplotlib.axis_1">
    <g id="xtick_1">
     <g id="line2d_1">
      <path d="M 66.901923 464.975236 
L 66.901923 35.732595 
" clip-path="url(#p9043316d5a)" style="fill: none; stroke-dasharray: 0.5,0.825; stroke-dashoffset: 0; stroke: #b0b0b0; stroke-width: 0.5"/>
     </g>
     <g id="line2d_2">
      <defs>
       <path id="mcf089cc2c9" d="M 0 0 
L 0 3.5 
" style="stroke: #ffffff; stroke-width: 0.8"/>
      </defs>
      <g>
       <use xlink:href="#mcf089cc2c9" x="66.901923" y="464.975236" style="fill: #ffffff; stroke: #ffffff; stroke-width: 0.8"/>
      </g>
     </g>
     <g id="text_1">
      <!-- 1x -->
      <g style="fill: #ffffff" transform="translate(64.511018 486.032298) rotate(-45) scale(0.1 -0.1)">
       <defs>
        <path id="DejaVuSans-31" d="M 794 531 
L 1825 531 
L 1825 4091 
L 703 3866 
L 703 4441 
L 1819 4666 
L 2450 4666 
L 2450 531 
L 3481 531 
L 3481 0 
L 794 0 
L 794 531 
z
" transform="scale(0.015625)"/>
        <path id="DejaVuSans-78" d="M 3513 3500 
L 2247 1797 
L 3578 0 
L 2900 0 
L 1881 1375 
L 863 0 
L 184 0 
L 1544 1831 
L 300 3500 
L 978 3500 
L 1906 2253 
L 2834 3500 
L 3513 3500 
z
" transform="scale(0.015625)"/>
       </defs>
       <use xlink:href="#DejaVuSans-31"/>
       <use xlink:href="#DejaVuSans-78" transform="translate(63.623047 0)"/>
      </g>
     </g>
    </g>
    <g id="xtick_2">
     <g id="line2d_3">
      <path d="M 142.530288 464.975236 
L 142.530288 35.732595 
" clip-path="url(#p9043316d5a)" style="fill: none; stroke-dasharray: 0.5,0.825; stroke-dashoffset: 0; stroke: #b0b0b0; stroke-width: 0.5"/>
     </g>
     <g id="line2d_4">
      <g>
       <use xlink:href="#mcf089cc2c9" x="142.530288" y="464.975236" style="fill: #ffffff; stroke: #ffffff; stroke-width: 0.8"/>
      </g>
     </g>
     <g id="text_2">
      <!-- 2x -->
      <g style="fill: #ffffff" transform="translate(140.139383 486.032298) rotate(-45) scale(0.1 -0.1)">
       <defs>
        <path id="DejaVuSans-32" d="M 1228 531 
L 3431 531 
L 3431 0 
L 469 0 
L 469 531 
Q 828 903 1448 1529 
Q 2069 2156 2228 2338 
Q 2531 2678 2651 2914 
Q 2772 3150 2772 3378 
Q 2772 3750 2511 3984 
Q 2250 4219 1831 4219 
Q 1534 4219 1204 4116 
Q 875 4013 500 3803 
L 500 4441 
Q 881 4594 1212 4672 
Q 1544 4750 1819 4750 
Q 2544 4750 2975 4387 
Q 3406 4025 3406 3419 
Q 3406 3131 3298 2873 
Q 3191 2616 2906 2266 
Q 2828 2175 2409 1742 
Q 1991 1309 1228 531 
z
" transform="scale(0.015625)"/>
       </defs>
       <use xlink:href="#DejaVuSans-32"/>
       <use xlink:href="#DejaVuSans-78" transform="translate(63.623047 0)"/>
      </g>
     </g>
    </g>
    <g id="xtick_3">
     <g id="line2d_5">
      <path d="M 218.158654 464.975236 
L 218.158654 35.732595 
" clip-path="url(#p9043316d5a)" style="fill: none; stroke-dasharray: 0.5,0.825; stroke-dashoffset: 0; stroke: #b0b0b0; stroke-width: 0.5"/>
     </g>
     <g id="line2d_6">
      <g>
       <use xlink:href="#mcf089cc2c9" x="218.158654" y="464.975236" style="fill: #ffffff; stroke: #ffffff; stroke-width: 0.8"/>
      </g>
     </g>
     <g id="text_3">
      <!-- 4x -->
      <g style="fill: #ffffff" transform="translate(215.767749 486.032298) rotate(-45) scale(0.1 -0.1)">
       <defs>
        <path id="DejaVuSans-34" d="M 2419 4116 
L 825 1625 
L 2419 1625 
L 2419 4116 
z
M 2253 4666 
L 3047 4666 
L 3047 1625 
L 3713 1625 
L 3713 1100 
L 3047 1100 
L 3047 0 
L 2419 0 
L 2419 1100 
L 313 1100 
L 313 1709 
L 2253 4666 
z
" transform="scale(0.015625)"/>
       </defs>
       <use xlink:href="#DejaVuSans-34"/>
       <use xlink:href="#DejaVuSans-78" transform="translate(63.623047 0)"/>
      </g>
     </g>
    </g>
    <g id="xtick_4">
     <g id="line2d_7">
      <path d="M 293.787019 464.975236 
L 293.787019 35.732595 
" clip-path="url(#p9043316d5a)" style="fill: none; stroke-dasharray: 0.5,0.825; stroke-dashoffset: 0; stroke: #b0b0b0; stroke-width: 0.5"/>
     </g>
     <g id="line2d_8">
      <g>
       <use xlink:href="#mcf089cc2c9" x="293.787019" y="464.975236" style="fill: #ffffff; stroke: #ffffff; stroke-width: 0.8"/>
      </g>
     </g>
     <g id="text_4">
      <!-- 8x -->
      <g style="fill: #ffffff" transform="translate(291.396114 486.032298) rotate(-45) scale(0.1 -0.1)">
       <defs>
        <path id="DejaVuSans-38" d="M 2034 2216 
Q 1584 2216 1326 1975 
Q 1069 1734 1069 1313 
Q 1069 891 1326 650 
Q 1584 409 2034 409 
Q 2484 409 2743 651 
Q 3003 894 3003 1313 
Q 3003 1734 2745 1975 
Q 2488 2216 2034 2216 
z
M 1403 2484 
Q 997 2584 770 2862 
Q 544 3141 544 3541 
Q 544 4100 942 4425 
Q 1341 4750 2034 4750 
Q 2731 4750 3128 4425 
Q 3525 4100 3525 3541 
Q 3525 3141 3298 2862 
Q 3072 2584 2669 2484 
Q 3125 2378 3379 2068 
Q 3634 1759 3634 1313 
Q 3634 634 3220 271 
Q 2806 -91 2034 -91 
Q 1263 -91 848 271 
Q 434 634 434 1313 
Q 434 1759 690 2068 
Q 947 2378 1403 2484 
z
M 1172 3481 
Q 1172 3119 1398 2916 
Q 1625 2713 2034 2713 
Q 2441 2713 2670 2916 
Q 2900 3119 2900 3481 
Q 2900 3844 2670 4047 
Q 2441 4250 2034 4250 
Q 1625 4250 1398 4047 
Q 1172 3844 1172 3481 
z
" transform="scale(0.015625)"/>
       </defs>
       <use xlink:href="#DejaVuSans-38"/>
       <use xlink:href="#DejaVuSans-78" transform="translate(63.623047 0)"/>
      </g>
     </g>
    </g>
    <g id="xtick_5">
     <g id="line2d_9">
      <path d="M 369.415385 464.975236 
L 369.415385 35.732595 
" clip-path="url(#p9043316d5a)" style="fill: none; stroke-dasharray: 0.5,0.825; stroke-dashoffset: 0; stroke: #b0b0b0; stroke-width: 0.5"/>
     </g>
     <g id="line2d_10">
      <g>
       <use xlink:href="#mcf089cc2c9" x="369.415385" y="464.975236" style="fill: #ffffff; stroke: #ffffff; stroke-width: 0.8"/>
      </g>
     </g>
     <g id="text_5">
      <!-- 16x -->
      <g style="fill: #ffffff" transform="translate(364.774996 490.531265) rotate(-45) scale(0.1 -0.1)">
       <defs>
        <path id="DejaVuSans-36" d="M 2113 2584 
Q 1688 2584 1439 2293 
Q 1191 2003 1191 1497 
Q 1191 994 1439 701 
Q 1688 409 2113 409 
Q 2538 409 2786 701 
Q 3034 994 3034 1497 
Q 3034 2003 2786 2293 
Q 2538 2584 2113 2584 
z
M 3366 4563 
L 3366 3988 
Q 3128 4100 2886 4159 
Q 2644 4219 2406 4219 
Q 1781 4219 1451 3797 
Q 1122 3375 1075 2522 
Q 1259 2794 1537 2939 
Q 1816 3084 2150 3084 
Q 2853 3084 3261 2657 
Q 3669 2231 3669 1497 
Q 3669 778 3244 343 
Q 2819 -91 2113 -91 
Q 1303 -91 875 529 
Q 447 1150 447 2328 
Q 447 3434 972 4092 
Q 1497 4750 2381 4750 
Q 2619 4750 2861 4703 
Q 3103 4656 3366 4563 
z
" transform="scale(0.015625)"/>
       </defs>
       <use xlink:href="#DejaVuSans-31"/>
       <use xlink:href="#DejaVuSans-36" transform="translate(63.623047 0)"/>
       <use xlink:href="#DejaVuSans-78" transform="translate(127.246094 0)"/>
      </g>
     </g>
    </g>
    <g id="xtick_6">
     <g id="line2d_11">
      <path d="M 445.04375 464.975236 
L 445.04375 35.732595 
" clip-path="url(#p9043316d5a)" style="fill: none; stroke-dasharray: 0.5,0.825; stroke-dashoffset: 0; stroke: #b0b0b0; stroke-width: 0.5"/>
     </g>
     <g id="line2d_12">
      <g>
       <use xlink:href="#mcf089cc2c9" x="445.04375" y="464.975236" style="fill: #ffffff; stroke: #ffffff; stroke-width: 0.8"/>
      </g>
     </g>
     <g id="text_6">
      <!-- 32x -->
      <g style="fill: #ffffff" transform="translate(440.403362 490.531265) rotate(-45) scale(0.1 -0.1)">
       <defs>
        <path id="DejaVuSans-33" d="M 2597 2516 
Q 3050 2419 3304 2112 
Q 3559 1806 3559 1356 
Q 3559 666 3084 287 
Q 2609 -91 1734 -91 
Q 1441 -91 1130 -33 
Q 819 25 488 141 
L 488 750 
Q 750 597 1062 519 
Q 1375 441 1716 441 
Q 2309 441 2620 675 
Q 2931 909 2931 1356 
Q 2931 1769 2642 2001 
Q 2353 2234 1838 2234 
L 1294 2234 
L 1294 2753 
L 1863 2753 
Q 2328 2753 2575 2939 
Q 2822 3125 2822 3475 
Q 2822 3834 2567 4026 
Q 2313 4219 1838 4219 
Q 1578 4219 1281 4162 
Q 984 4106 628 3988 
L 628 4550 
Q 988 4650 1302 4700 
Q 1616 4750 1894 4750 
Q 2613 4750 3031 4423 
Q 3450 4097 3450 3541 
Q 3450 3153 3228 2886 
Q 3006 2619 2597 2516 
z
" transform="scale(0.015625)"/>
       </defs>
       <use xlink:href="#DejaVuSans-33"/>
       <use xlink:href="#DejaVuSans-32" transform="translate(63.623047 0)"/>
       <use xlink:href="#DejaVuSans-78" transform="translate(127.246094 0)"/>
      </g>
     </g>
    </g>
    <g id="xtick_7">
     <g id="line2d_13">
      <path d="M 520.672115 464.975236 
L 520.672115 35.732595 
" clip-path="url(#p9043316d5a)" style="fill: none; stroke-dasharray: 0.5,0.825; stroke-dashoffset: 0; stroke: #b0b0b0; stroke-width: 0.5"/>
     </g>
     <g id="line2d_14">
      <g>
       <use xlink:href="#mcf089cc2c9" x="520.672115" y="464.975236" style="fill: #ffffff; stroke: #ffffff; stroke-width: 0.8"/>
      </g>
     </g>
     <g id="text_7">
      <!-- 64x -->
      <g style="fill: #ffffff" transform="translate(516.031727 490.531265) rotate(-45) scale(0.1 -0.1)">
       <use xlink:href="#DejaVuSans-36"/>
       <use xlink:href="#DejaVuSans-34" transform="translate(63.623047 0)"/>
       <use xlink:href="#DejaVuSans-78" transform="translate(127.246094 0)"/>
      </g>
     </g>
    </g>
    <g id="xtick_8">
     <g id="line2d_15">
      <path d="M 596.300481 464.975236 
L 596.300481 35.732595 
" clip-path="url(#p9043316d5a)" style="fill: none; stroke-dasharray: 0.5,0.825; stroke-dashoffset: 0; stroke: #b0b0b0; stroke-width: 0.5"/>
     </g>
     <g id="line2d_16">
      <g>
       <use xlink:href="#mcf089cc2c9" x="596.300481" y="464.975236" style="fill: #ffffff; stroke: #ffffff; stroke-width: 0.8"/>
      </g>
     </g>
     <g id="text_8">
      <!-- 128x -->
      <g style="fill: #ffffff" transform="translate(589.410609 495.030232) rotate(-45) scale(0.1 -0.1)">
       <use xlink:href="#DejaVuSans-31"/>
       <use xlink:href="#DejaVuSans-32" transform="translate(63.623047 0)"/>
       <use xlink:href="#DejaVuSans-38" transform="translate(127.246094 0)"/>
       <use xlink:href="#DejaVuSans-78" transform="translate(190.869141 0)"/>
      </g>
     </g>
    </g>
    <g id="xtick_9">
     <g id="line2d_17">
      <path d="M 671.928846 464.975236 
L 671.928846 35.732595 
" clip-path="url(#p9043316d5a)" style="fill: none; stroke-dasharray: 0.5,0.825; stroke-dashoffset: 0; stroke: #b0b0b0; stroke-width: 0.5"/>
     </g>
     <g id="line2d_18">
      <g>
       <use xlink:href="#mcf089cc2c9" x="671.928846" y="464.975236" style="fill: #ffffff; stroke: #ffffff; stroke-width: 0.8"/>
      </g>
     </g>
     <g id="text_9">
      <!-- 256x -->
      <g style="fill: #ffffff" transform="translate(665.038975 495.030232) rotate(-45) scale(0.1 -0.1)">
       <defs>
        <path id="DejaVuSans-35" d="M 691 4666 
L 3169 4666 
L 3169 4134 
L 1269 4134 
L 1269 2991 
Q 1406 3038 1543 3061 
Q 1681 3084 1819 3084 
Q 2600 3084 3056 2656 
Q 3513 2228 3513 1497 
Q 3513 744 3044 326 
Q 2575 -91 1722 -91 
Q 1428 -91 1123 -41 
Q 819 9 494 109 
L 494 744 
Q 775 591 1075 516 
Q 1375 441 1709 441 
Q 2250 441 2565 725 
Q 2881 1009 2881 1497 
Q 2881 1984 2565 2268 
Q 2250 2553 1709 2553 
Q 1456 2553 1204 2497 
Q 953 2441 691 2322 
L 691 4666 
z
" transform="scale(0.015625)"/>
       </defs>
       <use xlink:href="#DejaVuSans-32"/>
       <use xlink:href="#DejaVuSans-35" transform="translate(63.623047 0)"/>
       <use xlink:href="#DejaVuSans-36" transform="translate(127.246094 0)"/>
       <use xlink:href="#DejaVuSans-78" transform="translate(190.869141 0)"/>
      </g>
     </g>
    </g>
    <g id="xtick_10">
     <g id="line2d_19">
      <path d="M 747.557212 464.975236 
L 747.557212 35.732595 
" clip-path="url(#p9043316d5a)" style="fill: none; stroke-dasharray: 0.5,0.825; stroke-dashoffset: 0; stroke: #b0b0b0; stroke-width: 0.5"/>
     </g>
     <g id="line2d_20">
      <g>
       <use xlink:href="#mcf089cc2c9" x="747.557212" y="464.975236" style="fill: #ffffff; stroke: #ffffff; stroke-width: 0.8"/>
      </g>
     </g>
     <g id="text_10">
      <!-- 512x -->
      <g style="fill: #ffffff" transform="translate(740.66734 495.030232) rotate(-45) scale(0.1 -0.1)">
       <use xlink:href="#DejaVuSans-35"/>
       <use xlink:href="#DejaVuSans-31" transform="translate(63.623047 0)"/>
       <use xlink:href="#DejaVuSans-32" transform="translate(127.246094 0)"/>
       <use xlink:href="#DejaVuSans-78" transform="translate(190.869141 0)"/>
      </g>
     </g>
    </g>
    <g id="xtick_11">
     <g id="line2d_21">
      <path d="M 823.185577 464.975236 
L 823.185577 35.732595 
" clip-path="url(#p9043316d5a)" style="fill: none; stroke-dasharray: 0.5,0.825; stroke-dashoffset: 0; stroke: #b0b0b0; stroke-width: 0.5"/>
     </g>
     <g id="line2d_22">
      <g>
       <use xlink:href="#mcf089cc2c9" x="823.185577" y="464.975236" style="fill: #ffffff; stroke: #ffffff; stroke-width: 0.8"/>
      </g>
     </g>
     <g id="text_11">
      <!-- 1024x -->
      <g style="fill: #ffffff" transform="translate(814.046222 499.529199) rotate(-45) scale(0.1 -0.1)">
       <defs>
        <path id="DejaVuSans-30" d="M 2034 4250 
Q 1547 4250 1301 3770 
Q 1056 3291 1056 2328 
Q 1056 1369 1301 889 
Q 1547 409 2034 409 
Q 2525 409 2770 889 
Q 3016 1369 3016 2328 
Q 3016 3291 2770 3770 
Q 2525 4250 2034 4250 
z
M 2034 4750 
Q 2819 4750 3233 4129 
Q 3647 3509 3647 2328 
Q 3647 1150 3233 529 
Q 2819 -91 2034 -91 
Q 1250 -91 836 529 
Q 422 1150 422 2328 
Q 422 3509 836 4129 
Q 1250 4750 2034 4750 
z
" transform="scale(0.015625)"/>
       </defs>
       <use xlink:href="#DejaVuSans-31"/>
       <use xlink:href="#DejaVuSans-30" transform="translate(63.623047 0)"/>
       <use xlink:href="#DejaVuSans-32" transform="translate(127.246094 0)"/>
       <use xlink:href="#DejaVuSans-34" transform="translate(190.869141 0)"/>
       <use xlink:href="#DejaVuSans-78" transform="translate(254.492188 0)"/>
      </g>
     </g>
    </g>
   </g>
   <g id="matplotlib.axis_2">
    <g id="ytick_1">
     <g id="line2d_23">
      <path d="M 29.08774 447.953891 
L 860.99976 447.953891 
" clip-path="url(#p9043316d5a)" style="fill: none; stroke-dasharray: 0.5,0.825; stroke-dashoffset: 0; stroke: #b0b0b0; stroke-width: 0.5"/>
     </g>
     <g id="line2d_24">
      <defs>
       <path id="me0f45b7752" d="M 0 0 
L -3.5 0 
" style="stroke: #ffffff; stroke-width: 0.8"/>
      </defs>
      <g>
       <use xlink:href="#me0f45b7752" x="29.08774" y="447.953891" style="fill: #ffffff; stroke: #ffffff; stroke-width: 0.8"/>
      </g>
     </g>
     <g id="text_12">
      <!-- 1 -->
      <g style="fill: #ffffff" transform="translate(15.72524 451.75311) scale(0.1 -0.1)">
       <use xlink:href="#DejaVuSans-31"/>
      </g>
     </g>
    </g>
    <g id="ytick_2">
     <g id="line2d_25">
      <path d="M 29.08774 389.094444 
L 860.99976 389.094444 
" clip-path="url(#p9043316d5a)" style="fill: none; stroke-dasharray: 0.5,0.825; stroke-dashoffset: 0; stroke: #b0b0b0; stroke-width: 0.5"/>
     </g>
     <g id="line2d_26">
      <g>
       <use xlink:href="#me0f45b7752" x="29.08774" y="389.094444" style="fill: #ffffff; stroke: #ffffff; stroke-width: 0.8"/>
      </g>
     </g>
     <g id="text_13">
      <!-- 2 -->
      <g style="fill: #ffffff" transform="translate(15.72524 392.893663) scale(0.1 -0.1)">
       <use xlink:href="#DejaVuSans-32"/>
      </g>
     </g>
    </g>
    <g id="ytick_3">
     <g id="line2d_27">
      <path d="M 29.08774 311.286488 
L 860.99976 311.286488 
" clip-path="url(#p9043316d5a)" style="fill: none; stroke-dasharray: 0.5,0.825; stroke-dashoffset: 0; stroke: #b0b0b0; stroke-width: 0.5"/>
     </g>
     <g id="line2d_28">
      <g>
       <use xlink:href="#me0f45b7752" x="29.08774" y="311.286488" style="fill: #ffffff; stroke: #ffffff; stroke-width: 0.8"/>
      </g>
     </g>
     <g id="text_14">
      <!-- 5 -->
      <g style="fill: #ffffff" transform="translate(15.72524 315.085706) scale(0.1 -0.1)">
       <use xlink:href="#DejaVuSans-35"/>
      </g>
     </g>
    </g>
    <g id="ytick_4">
     <g id="line2d_29">
      <path d="M 29.08774 252.427041 
L 860.99976 252.427041 
" clip-path="url(#p9043316d5a)" style="fill: none; stroke-dasharray: 0.5,0.825; stroke-dashoffset: 0; stroke: #b0b0b0; stroke-width: 0.5"/>
     </g>
     <g id="line2d_30">
      <g>
       <use xlink:href="#me0f45b7752" x="29.08774" y="252.427041" style="fill: #ffffff; stroke: #ffffff; stroke-width: 0.8"/>
      </g>
     </g>
     <g id="text_15">
      <!-- 10 -->
      <g style="fill: #ffffff" transform="translate(9.36274 256.22626) scale(0.1 -0.1)">
       <use xlink:href="#DejaVuSans-31"/>
       <use xlink:href="#DejaVuSans-30" transform="translate(63.623047 0)"/>
      </g>
     </g>
    </g>
    <g id="ytick_5">
     <g id="line2d_31">
      <path d="M 29.08774 193.567594 
L 860.99976 193.567594 
" clip-path="url(#p9043316d5a)" style="fill: none; stroke-dasharray: 0.5,0.825; stroke-dashoffset: 0; stroke: #b0b0b0; stroke-width: 0.5"/>
     </g>
     <g id="line2d_32">
      <g>
       <use xlink:href="#me0f45b7752" x="29.08774" y="193.567594" style="fill: #ffffff; stroke: #ffffff; stroke-width: 0.8"/>
      </g>
     </g>
     <g id="text_16">
      <!-- 20 -->
      <g style="fill: #ffffff" transform="translate(9.36274 197.366813) scale(0.1 -0.1)">
       <use xlink:href="#DejaVuSans-32"/>
       <use xlink:href="#DejaVuSans-30" transform="translate(63.623047 0)"/>
      </g>
     </g>
    </g>
    <g id="ytick_6">
     <g id="line2d_33">
      <path d="M 29.08774 115.759638 
L 860.99976 115.759638 
" clip-path="url(#p9043316d5a)" style="fill: none; stroke-dasharray: 0.5,0.825; stroke-dashoffset: 0; stroke: #b0b0b0; stroke-width: 0.5"/>
     </g>
     <g id="line2d_34">
      <g>
       <use xlink:href="#me0f45b7752" x="29.08774" y="115.759638" style="fill: #ffffff; stroke: #ffffff; stroke-width: 0.8"/>
      </g>
     </g>
     <g id="text_17">
      <!-- 50 -->
      <g style="fill: #ffffff" transform="translate(9.36274 119.558856) scale(0.1 -0.1)">
       <use xlink:href="#DejaVuSans-35"/>
       <use xlink:href="#DejaVuSans-30" transform="translate(63.623047 0)"/>
      </g>
     </g>
    </g>
    <g id="ytick_7">
     <g id="line2d_35">
      <path d="M 29.08774 56.900191 
L 860.99976 56.900191 
" clip-path="url(#p9043316d5a)" style="fill: none; stroke-dasharray: 0.5,0.825; stroke-dashoffset: 0; stroke: #b0b0b0; stroke-width: 0.5"/>
     </g>
     <g id="line2d_36">
      <g>
       <use xlink:href="#me0f45b7752" x="29.08774" y="56.900191" style="fill: #ffffff; stroke: #ffffff; stroke-width: 0.8"/>
      </g>
     </g>
     <g id="text_18">
      <!-- 100 -->
      <g style="fill: #ffffff" transform="translate(3.00024 60.69941) scale(0.1 -0.1)">
       <use xlink:href="#DejaVuSans-31"/>
       <use xlink:href="#DejaVuSans-30" transform="translate(63.623047 0)"/>
       <use xlink:href="#DejaVuSans-30" transform="translate(127.246094 0)"/>
      </g>
     </g>
    </g>
   </g>
   <g id="line2d_37">
    <path d="M 564.911873 464.975236 
L 564.911873 35.732595 
" clip-path="url(#p9043316d5a)" style="fill: none; stroke-dasharray: 5.55,2.4; stroke-dashoffset: 0; stroke: #1f77b4; stroke-width: 1.5"/>
   </g>
   <g id="line2d_38">
    <path d="M 66.901923 375.170415 
L 142.530288 375.717533 
L 218.158654 369.159189 
L 293.787019 358.10281 
L 369.415385 328.018567 
L 445.04375 305.183003 
L 520.672115 295.106556 
L 564.911873 284.479352 
L 596.300481 265.625538 
L 671.928846 210.874926 
L 747.557212 158.610725 
L 823.185577 99.195949 
" clip-path="url(#p9043316d5a)" style="fill: none; stroke: #1f77b4; stroke-width: 1.5; stroke-linecap: square"/>
   </g>
   <g id="line2d_39">
    <defs>
     <path id="m17984ba001" d="M 0 3 
C 0.795609 3 1.55874 2.683901 2.12132 2.12132 
C 2.683901 1.55874 3 0.795609 3 0 
C 3 -0.795609 2.683901 -1.55874 2.12132 -2.12132 
C 1.55874 -2.683901 0.795609 -3 0 -3 
C -0.795609 -3 -1.55874 -2.683901 -2.12132 -2.12132 
C -2.683901 -1.55874 -3 -0.795609 -3 0 
C -3 0.795609 -2.683901 1.55874 -2.12132 2.12132 
C -1.55874 2.683901 -0.795609 3 0 3 
z
" style="stroke: #1f77b4"/>
    </defs>
    <g clip-path="url(#p9043316d5a)">
     <use xlink:href="#m17984ba001" x="66.901923" y="375.170415" style="fill: #1f77b4; stroke: #1f77b4"/>
     <use xlink:href="#m17984ba001" x="142.530288" y="375.717533" style="fill: #1f77b4; stroke: #1f77b4"/>
     <use xlink:href="#m17984ba001" x="218.158654" y="369.159189" style="fill: #1f77b4; stroke: #1f77b4"/>
     <use xlink:href="#m17984ba001" x="293.787019" y="358.10281" style="fill: #1f77b4; stroke: #1f77b4"/>
     <use xlink:href="#m17984ba001" x="369.415385" y="328.018567" style="fill: #1f77b4; stroke: #1f77b4"/>
     <use xlink:href="#m17984ba001" x="445.04375" y="305.183003" style="fill: #1f77b4; stroke: #1f77b4"/>
     <use xlink:href="#m17984ba001" x="520.672115" y="295.106556" style="fill: #1f77b4; stroke: #1f77b4"/>
     <use xlink:href="#m17984ba001" x="564.911873" y="284.479352" style="fill: #1f77b4; stroke: #1f77b4"/>
     <use xlink:href="#m17984ba001" x="596.300481" y="265.625538" style="fill: #1f77b4; stroke: #1f77b4"/>
     <use xlink:href="#m17984ba001" x="671.928846" y="210.874926" style="fill: #1f77b4; stroke: #1f77b4"/>
     <use xlink:href="#m17984ba001" x="747.557212" y="158.610725" style="fill: #1f77b4; stroke: #1f77b4"/>
     <use xlink:href="#m17984ba001" x="823.185577" y="99.195949" style="fill: #1f77b4; stroke: #1f77b4"/>
    </g>
   </g>
   <g id="line2d_40">
    <path d="M 66.901923 163.52989 
L 142.530288 162.227864 
L 218.158654 162.287299 
L 293.787019 161.98617 
L 369.415385 159.542665 
L 445.04375 158.702387 
L 520.672115 157.251149 
L 596.300481 152.152064 
L 671.928846 139.19316 
L 747.557212 124.00499 
L 823.185577 98.165295 
" clip-path="url(#p9043316d5a)" style="fill: none; stroke: #ff7f0e; stroke-width: 1.5; stroke-linecap: square"/>
   </g>
   <g id="line2d_41">
    <defs>
     <path id="mdaa66dbd4e" d="M 0 3 
C 0.795609 3 1.55874 2.683901 2.12132 2.12132 
C 2.683901 1.55874 3 0.795609 3 0 
C 3 -0.795609 2.683901 -1.55874 2.12132 -2.12132 
C 1.55874 -2.683901 0.795609 -3 0 -3 
C -0.795609 -3 -1.55874 -2.683901 -2.12132 -2.12132 
C -2.683901 -1.55874 -3 -0.795609 -3 0 
C -3 0.795609 -2.683901 1.55874 -2.12132 2.12132 
C -1.55874 2.683901 -0.795609 3 0 3 
z
" style="stroke: #ff7f0e"/>
    </defs>
    <g clip-path="url(#p9043316d5a)">
     <use xlink:href="#mdaa66dbd4e" x="66.901923" y="163.52989" style="fill: #ff7f0e; stroke: #ff7f0e"/>
     <use xlink:href="#mdaa66dbd4e" x="142.530288" y="162.227864" style="fill: #ff7f0e; stroke: #ff7f0e"/>
     <use xlink:href="#mdaa66dbd4e" x="218.158654" y="162.287299" style="fill: #ff7f0e; stroke: #ff7f0e"/>
     <use xlink:href="#mdaa66dbd4e" x="293.787019" y="161.98617" style="fill: #ff7f0e; stroke: #ff7f0e"/>
     <use xlink:href="#mdaa66dbd4e" x="369.415385" y="159.542665" style="fill: #ff7f0e; stroke: #ff7f0e"/>
     <use xlink:href="#mdaa66dbd4e" x="445.04375" y="158.702387" style="fill: #ff7f0e; stroke: #ff7f0e"/>
     <use xlink:href="#mdaa66dbd4e" x="520.672115" y="157.251149" style="fill: #ff7f0e; stroke: #ff7f0e"/>
     <use xlink:href="#mdaa66dbd4e" x="596.300481" y="152.152064" style="fill: #ff7f0e; stroke: #ff7f0e"/>
     <use xlink:href="#mdaa66dbd4e" x="671.928846" y="139.19316" style="fill: #ff7f0e; stroke: #ff7f0e"/>
     <use xlink:href="#mdaa66dbd4e" x="747.557212" y="124.00499" style="fill: #ff7f0e; stroke: #ff7f0e"/>
     <use xlink:href="#mdaa66dbd4e" x="823.185577" y="98.165295" style="fill: #ff7f0e; stroke: #ff7f0e"/>
    </g>
   </g>
   <g id="line2d_42">
    <path d="M 66.901923 445.464207 
L 142.530288 438.293556 
L 218.158654 398.402136 
L 293.787019 385.520728 
L 369.415385 338.385929 
L 445.04375 321.714764 
L 520.672115 259.501955 
L 596.300481 222.580125 
L 671.928846 164.390287 
L 747.557212 115.554877 
L 823.185577 55.243624 
" clip-path="url(#p9043316d5a)" style="fill: none; stroke: #2ca02c; stroke-width: 1.5; stroke-linecap: square"/>
   </g>
   <g id="line2d_43">
    <defs>
     <path id="mb09a298503" d="M 0 3 
C 0.795609 3 1.55874 2.683901 2.12132 2.12132 
C 2.683901 1.55874 3 0.795609 3 0 
C 3 -0.795609 2.683901 -1.55874 2.12132 -2.12132 
C 1.55874 -2.683901 0.795609 -3 0 -3 
C -0.795609 -3 -1.55874 -2.683901 -2.12132 -2.12132 
C -2.683901 -1.55874 -3 -0.795609 -3 0 
C -3 0.795609 -2.683901 1.55874 -2.12132 2.12132 
C -1.55874 2.683901 -0.795609 3 0 3 
z
" style="stroke: #2ca02c"/>
    </defs>
    <g clip-path="url(#p9043316d5a)">
     <use xlink:href="#mb09a298503" x="66.901923" y="445.464207" style="fill: #2ca02c; stroke: #2ca02c"/>
     <use xlink:href="#mb09a298503" x="142.530288" y="438.293556" style="fill: #2ca02c; stroke: #2ca02c"/>
     <use xlink:href="#mb09a298503" x="218.158654" y="398.402136" style="fill: #2ca02c; stroke: #2ca02c"/>
     <use xlink:href="#mb09a298503" x="293.787019" y="385.520728" style="fill: #2ca02c; stroke: #2ca02c"/>
     <use xlink:href="#mb09a298503" x="369.415385" y="338.385929" style="fill: #2ca02c; stroke: #2ca02c"/>
     <use xlink:href="#mb09a298503" x="445.04375" y="321.714764" style="fill: #2ca02c; stroke: #2ca02c"/>
     <use xlink:href="#mb09a298503" x="520.672115" y="259.501955" style="fill: #2ca02c; stroke: #2ca02c"/>
     <use xlink:href="#mb09a298503" x="596.300481" y="222.580125" style="fill: #2ca02c; stroke: #2ca02c"/>
     <use xlink:href="#mb09a298503" x="671.928846" y="164.390287" style="fill: #2ca02c; stroke: #2ca02c"/>
     <use xlink:href="#mb09a298503" x="747.557212" y="115.554877" style="fill: #2ca02c; stroke: #2ca02c"/>
     <use xlink:href="#mb09a298503" x="823.185577" y="55.243624" style="fill: #2ca02c; stroke: #2ca02c"/>
    </g>
   </g>
   <g id="patch_3">
    <path d="M 29.08774 464.975236 
L 29.08774 35.732595 
" style="fill: none; stroke: #000000; stroke-width: 0.8; stroke-linejoin: miter; stroke-linecap: square"/>
   </g>
   <g id="patch_4">
    <path d="M 860.99976 464.975236 
L 860.99976 35.732595 
" style="fill: none; stroke: #000000; stroke-width: 0.8; stroke-linejoin: miter; stroke-linecap: square"/>
   </g>
   <g id="patch_5">
    <path d="M 29.08774 464.975236 
L 860.99976 464.975236 
" style="fill: none; stroke: #000000; stroke-width: 0.8; stroke-linejoin: miter; stroke-linecap: square"/>
   </g>
   <g id="patch_6">
    <path d="M 29.08774 35.732595 
L 860.99976 35.732595 
" style="fill: none; stroke: #000000; stroke-width: 0.8; stroke-linejoin: miter; stroke-linecap: square"/>
   </g>
   <g id="text_19">
    <!-- (Ocean Coriolis &amp; mom advection) -->
    <g style="fill: #ffffff" transform="translate(341.855937 29.732595) scale(0.12 -0.12)">
     <defs>
      <path id="DejaVuSans-28" d="M 1984 4856 
Q 1566 4138 1362 3434 
Q 1159 2731 1159 2009 
Q 1159 1288 1364 580 
Q 1569 -128 1984 -844 
L 1484 -844 
Q 1016 -109 783 600 
Q 550 1309 550 2009 
Q 550 2706 781 3412 
Q 1013 4119 1484 4856 
L 1984 4856 
z
" transform="scale(0.015625)"/>
      <path id="DejaVuSans-4f" d="M 2522 4238 
Q 1834 4238 1429 3725 
Q 1025 3213 1025 2328 
Q 1025 1447 1429 934 
Q 1834 422 2522 422 
Q 3209 422 3611 934 
Q 4013 1447 4013 2328 
Q 4013 3213 3611 3725 
Q 3209 4238 2522 4238 
z
M 2522 4750 
Q 3503 4750 4090 4092 
Q 4678 3434 4678 2328 
Q 4678 1225 4090 567 
Q 3503 -91 2522 -91 
Q 1538 -91 948 565 
Q 359 1222 359 2328 
Q 359 3434 948 4092 
Q 1538 4750 2522 4750 
z
" transform="scale(0.015625)"/>
      <path id="DejaVuSans-63" d="M 3122 3366 
L 3122 2828 
Q 2878 2963 2633 3030 
Q 2388 3097 2138 3097 
Q 1578 3097 1268 2742 
Q 959 2388 959 1747 
Q 959 1106 1268 751 
Q 1578 397 2138 397 
Q 2388 397 2633 464 
Q 2878 531 3122 666 
L 3122 134 
Q 2881 22 2623 -34 
Q 2366 -91 2075 -91 
Q 1284 -91 818 406 
Q 353 903 353 1747 
Q 353 2603 823 3093 
Q 1294 3584 2113 3584 
Q 2378 3584 2631 3529 
Q 2884 3475 3122 3366 
z
" transform="scale(0.015625)"/>
      <path id="DejaVuSans-65" d="M 3597 1894 
L 3597 1613 
L 953 1613 
Q 991 1019 1311 708 
Q 1631 397 2203 397 
Q 2534 397 2845 478 
Q 3156 559 3463 722 
L 3463 178 
Q 3153 47 2828 -22 
Q 2503 -91 2169 -91 
Q 1331 -91 842 396 
Q 353 884 353 1716 
Q 353 2575 817 3079 
Q 1281 3584 2069 3584 
Q 2775 3584 3186 3129 
Q 3597 2675 3597 1894 
z
M 3022 2063 
Q 3016 2534 2758 2815 
Q 2500 3097 2075 3097 
Q 1594 3097 1305 2825 
Q 1016 2553 972 2059 
L 3022 2063 
z
" transform="scale(0.015625)"/>
      <path id="DejaVuSans-61" d="M 2194 1759 
Q 1497 1759 1228 1600 
Q 959 1441 959 1056 
Q 959 750 1161 570 
Q 1363 391 1709 391 
Q 2188 391 2477 730 
Q 2766 1069 2766 1631 
L 2766 1759 
L 2194 1759 
z
M 3341 1997 
L 3341 0 
L 2766 0 
L 2766 531 
Q 2569 213 2275 61 
Q 1981 -91 1556 -91 
Q 1019 -91 701 211 
Q 384 513 384 1019 
Q 384 1609 779 1909 
Q 1175 2209 1959 2209 
L 2766 2209 
L 2766 2266 
Q 2766 2663 2505 2880 
Q 2244 3097 1772 3097 
Q 1472 3097 1187 3025 
Q 903 2953 641 2809 
L 641 3341 
Q 956 3463 1253 3523 
Q 1550 3584 1831 3584 
Q 2591 3584 2966 3190 
Q 3341 2797 3341 1997 
z
" transform="scale(0.015625)"/>
      <path id="DejaVuSans-6e" d="M 3513 2113 
L 3513 0 
L 2938 0 
L 2938 2094 
Q 2938 2591 2744 2837 
Q 2550 3084 2163 3084 
Q 1697 3084 1428 2787 
Q 1159 2491 1159 1978 
L 1159 0 
L 581 0 
L 581 3500 
L 1159 3500 
L 1159 2956 
Q 1366 3272 1645 3428 
Q 1925 3584 2291 3584 
Q 2894 3584 3203 3211 
Q 3513 2838 3513 2113 
z
" transform="scale(0.015625)"/>
      <path id="DejaVuSans-20" transform="scale(0.015625)"/>
      <path id="DejaVuSans-43" d="M 4122 4306 
L 4122 3641 
Q 3803 3938 3442 4084 
Q 3081 4231 2675 4231 
Q 1875 4231 1450 3742 
Q 1025 3253 1025 2328 
Q 1025 1406 1450 917 
Q 1875 428 2675 428 
Q 3081 428 3442 575 
Q 3803 722 4122 1019 
L 4122 359 
Q 3791 134 3420 21 
Q 3050 -91 2638 -91 
Q 1578 -91 968 557 
Q 359 1206 359 2328 
Q 359 3453 968 4101 
Q 1578 4750 2638 4750 
Q 3056 4750 3426 4639 
Q 3797 4528 4122 4306 
z
" transform="scale(0.015625)"/>
      <path id="DejaVuSans-6f" d="M 1959 3097 
Q 1497 3097 1228 2736 
Q 959 2375 959 1747 
Q 959 1119 1226 758 
Q 1494 397 1959 397 
Q 2419 397 2687 759 
Q 2956 1122 2956 1747 
Q 2956 2369 2687 2733 
Q 2419 3097 1959 3097 
z
M 1959 3584 
Q 2709 3584 3137 3096 
Q 3566 2609 3566 1747 
Q 3566 888 3137 398 
Q 2709 -91 1959 -91 
Q 1206 -91 779 398 
Q 353 888 353 1747 
Q 353 2609 779 3096 
Q 1206 3584 1959 3584 
z
" transform="scale(0.015625)"/>
      <path id="DejaVuSans-72" d="M 2631 2963 
Q 2534 3019 2420 3045 
Q 2306 3072 2169 3072 
Q 1681 3072 1420 2755 
Q 1159 2438 1159 1844 
L 1159 0 
L 581 0 
L 581 3500 
L 1159 3500 
L 1159 2956 
Q 1341 3275 1631 3429 
Q 1922 3584 2338 3584 
Q 2397 3584 2469 3576 
Q 2541 3569 2628 3553 
L 2631 2963 
z
" transform="scale(0.015625)"/>
      <path id="DejaVuSans-69" d="M 603 3500 
L 1178 3500 
L 1178 0 
L 603 0 
L 603 3500 
z
M 603 4863 
L 1178 4863 
L 1178 4134 
L 603 4134 
L 603 4863 
z
" transform="scale(0.015625)"/>
      <path id="DejaVuSans-6c" d="M 603 4863 
L 1178 4863 
L 1178 0 
L 603 0 
L 603 4863 
z
" transform="scale(0.015625)"/>
      <path id="DejaVuSans-73" d="M 2834 3397 
L 2834 2853 
Q 2591 2978 2328 3040 
Q 2066 3103 1784 3103 
Q 1356 3103 1142 2972 
Q 928 2841 928 2578 
Q 928 2378 1081 2264 
Q 1234 2150 1697 2047 
L 1894 2003 
Q 2506 1872 2764 1633 
Q 3022 1394 3022 966 
Q 3022 478 2636 193 
Q 2250 -91 1575 -91 
Q 1294 -91 989 -36 
Q 684 19 347 128 
L 347 722 
Q 666 556 975 473 
Q 1284 391 1588 391 
Q 1994 391 2212 530 
Q 2431 669 2431 922 
Q 2431 1156 2273 1281 
Q 2116 1406 1581 1522 
L 1381 1569 
Q 847 1681 609 1914 
Q 372 2147 372 2553 
Q 372 3047 722 3315 
Q 1072 3584 1716 3584 
Q 2034 3584 2315 3537 
Q 2597 3491 2834 3397 
z
" transform="scale(0.015625)"/>
      <path id="DejaVuSans-26" d="M 1556 2509 
Q 1272 2256 1139 2004 
Q 1006 1753 1006 1478 
Q 1006 1022 1337 719 
Q 1669 416 2169 416 
Q 2466 416 2725 514 
Q 2984 613 3213 813 
L 1556 2509 
z
M 1997 2859 
L 3584 1234 
Q 3769 1513 3872 1830 
Q 3975 2147 3994 2503 
L 4575 2503 
Q 4538 2091 4375 1687 
Q 4213 1284 3922 891 
L 4794 0 
L 4006 0 
L 3559 459 
Q 3234 181 2878 45 
Q 2522 -91 2113 -91 
Q 1359 -91 881 339 
Q 403 769 403 1441 
Q 403 1841 612 2192 
Q 822 2544 1241 2853 
Q 1091 3050 1012 3245 
Q 934 3441 934 3628 
Q 934 4134 1281 4442 
Q 1628 4750 2203 4750 
Q 2463 4750 2720 4694 
Q 2978 4638 3244 4525 
L 3244 3956 
Q 2972 4103 2725 4179 
Q 2478 4256 2266 4256 
Q 1938 4256 1733 4082 
Q 1528 3909 1528 3634 
Q 1528 3475 1620 3314 
Q 1713 3153 1997 2859 
z
" transform="scale(0.015625)"/>
      <path id="DejaVuSans-6d" d="M 3328 2828 
Q 3544 3216 3844 3400 
Q 4144 3584 4550 3584 
Q 5097 3584 5394 3201 
Q 5691 2819 5691 2113 
L 5691 0 
L 5113 0 
L 5113 2094 
Q 5113 2597 4934 2840 
Q 4756 3084 4391 3084 
Q 3944 3084 3684 2787 
Q 3425 2491 3425 1978 
L 3425 0 
L 2847 0 
L 2847 2094 
Q 2847 2600 2669 2842 
Q 2491 3084 2119 3084 
Q 1678 3084 1418 2786 
Q 1159 2488 1159 1978 
L 1159 0 
L 581 0 
L 581 3500 
L 1159 3500 
L 1159 2956 
Q 1356 3278 1631 3431 
Q 1906 3584 2284 3584 
Q 2666 3584 2933 3390 
Q 3200 3197 3328 2828 
z
" transform="scale(0.015625)"/>
      <path id="DejaVuSans-64" d="M 2906 2969 
L 2906 4863 
L 3481 4863 
L 3481 0 
L 2906 0 
L 2906 525 
Q 2725 213 2448 61 
Q 2172 -91 1784 -91 
Q 1150 -91 751 415 
Q 353 922 353 1747 
Q 353 2572 751 3078 
Q 1150 3584 1784 3584 
Q 2172 3584 2448 3432 
Q 2725 3281 2906 2969 
z
M 947 1747 
Q 947 1113 1208 752 
Q 1469 391 1925 391 
Q 2381 391 2643 752 
Q 2906 1113 2906 1747 
Q 2906 2381 2643 2742 
Q 2381 3103 1925 3103 
Q 1469 3103 1208 2742 
Q 947 2381 947 1747 
z
" transform="scale(0.015625)"/>
      <path id="DejaVuSans-76" d="M 191 3500 
L 800 3500 
L 1894 563 
L 2988 3500 
L 3597 3500 
L 2284 0 
L 1503 0 
L 191 3500 
z
" transform="scale(0.015625)"/>
      <path id="DejaVuSans-74" d="M 1172 4494 
L 1172 3500 
L 2356 3500 
L 2356 3053 
L 1172 3053 
L 1172 1153 
Q 1172 725 1289 603 
Q 1406 481 1766 481 
L 2356 481 
L 2356 0 
L 1766 0 
Q 1100 0 847 248 
Q 594 497 594 1153 
L 594 3053 
L 172 3053 
L 172 3500 
L 594 3500 
L 594 4494 
L 1172 4494 
z
" transform="scale(0.015625)"/>
      <path id="DejaVuSans-29" d="M 513 4856 
L 1013 4856 
Q 1481 4119 1714 3412 
Q 1947 2706 1947 2009 
Q 1947 1309 1714 600 
Q 1481 -109 1013 -844 
L 513 -844 
Q 928 -128 1133 580 
Q 1338 1288 1338 2009 
Q 1338 2731 1133 3434 
Q 928 4138 513 4856 
z
" transform="scale(0.015625)"/>
     </defs>
     <use xlink:href="#DejaVuSans-28"/>
     <use xlink:href="#DejaVuSans-4f" transform="translate(39.013672 0)"/>
     <use xlink:href="#DejaVuSans-63" transform="translate(117.724609 0)"/>
     <use xlink:href="#DejaVuSans-65" transform="translate(172.705078 0)"/>
     <use xlink:href="#DejaVuSans-61" transform="translate(234.228516 0)"/>
     <use xlink:href="#DejaVuSans-6e" transform="translate(295.507812 0)"/>
     <use xlink:href="#DejaVuSans-20" transform="translate(358.886719 0)"/>
     <use xlink:href="#DejaVuSans-43" transform="translate(390.673828 0)"/>
     <use xlink:href="#DejaVuSans-6f" transform="translate(460.498047 0)"/>
     <use xlink:href="#DejaVuSans-72" transform="translate(521.679688 0)"/>
     <use xlink:href="#DejaVuSans-69" transform="translate(562.792969 0)"/>
     <use xlink:href="#DejaVuSans-6f" transform="translate(590.576172 0)"/>
     <use xlink:href="#DejaVuSans-6c" transform="translate(651.757812 0)"/>
     <use xlink:href="#DejaVuSans-69" transform="translate(679.541016 0)"/>
     <use xlink:href="#DejaVuSans-73" transform="translate(707.324219 0)"/>
     <use xlink:href="#DejaVuSans-20" transform="translate(759.423828 0)"/>
     <use xlink:href="#DejaVuSans-26" transform="translate(791.210938 0)"/>
     <use xlink:href="#DejaVuSans-20" transform="translate(869.189453 0)"/>
     <use xlink:href="#DejaVuSans-6d" transform="translate(900.976562 0)"/>
     <use xlink:href="#DejaVuSans-6f" transform="translate(998.388672 0)"/>
     <use xlink:href="#DejaVuSans-6d" transform="translate(1059.570312 0)"/>
     <use xlink:href="#DejaVuSans-20" transform="translate(1156.982422 0)"/>
     <use xlink:href="#DejaVuSans-61" transform="translate(1188.769531 0)"/>
     <use xlink:href="#DejaVuSans-64" transform="translate(1250.048828 0)"/>
     <use xlink:href="#DejaVuSans-76" transform="translate(1313.525391 0)"/>
     <use xlink:href="#DejaVuSans-65" transform="translate(1372.705078 0)"/>
     <use xlink:href="#DejaVuSans-63" transform="translate(1434.228516 0)"/>
     <use xlink:href="#DejaVuSans-74" transform="translate(1489.208984 0)"/>
     <use xlink:href="#DejaVuSans-69" transform="translate(1528.417969 0)"/>
     <use xlink:href="#DejaVuSans-6f" transform="translate(1556.201172 0)"/>
     <use xlink:href="#DejaVuSans-6e" transform="translate(1617.382812 0)"/>
     <use xlink:href="#DejaVuSans-29" transform="translate(1680.761719 0)"/>
    </g>
   </g>
   <g id="legend_1">
    <g id="patch_7">
     <path d="M 36.08774 87.76697 
L 153.28774 87.76697 
Q 155.28774 87.76697 155.28774 85.76697 
L 155.28774 42.732595 
Q 155.28774 40.732595 153.28774 40.732595 
L 36.08774 40.732595 
Q 34.08774 40.732595 34.08774 42.732595 
L 34.08774 85.76697 
Q 34.08774 87.76697 36.08774 87.76697 
z
" style="fill: #ffffff; opacity: 0.8; stroke: #cccccc; stroke-linejoin: miter"/>
    </g>
    <g id="line2d_44">
     <path d="M 38.08774 48.831032 
L 48.08774 48.831032 
L 58.08774 48.831032 
" style="fill: none; stroke: #1f77b4; stroke-width: 1.5; stroke-linecap: square"/>
    </g>
    <g id="text_20">
     <!-- CPU (Genoa 96c) -->
     <g transform="translate(66.08774 52.331032) scale(0.1 -0.1)">
      <defs>
       <path id="DejaVuSans-50" d="M 1259 4147 
L 1259 2394 
L 2053 2394 
Q 2494 2394 2734 2622 
Q 2975 2850 2975 3272 
Q 2975 3691 2734 3919 
Q 2494 4147 2053 4147 
L 1259 4147 
z
M 628 4666 
L 2053 4666 
Q 2838 4666 3239 4311 
Q 3641 3956 3641 3272 
Q 3641 2581 3239 2228 
Q 2838 1875 2053 1875 
L 1259 1875 
L 1259 0 
L 628 0 
L 628 4666 
z
" transform="scale(0.015625)"/>
       <path id="DejaVuSans-55" d="M 556 4666 
L 1191 4666 
L 1191 1831 
Q 1191 1081 1462 751 
Q 1734 422 2344 422 
Q 2950 422 3222 751 
Q 3494 1081 3494 1831 
L 3494 4666 
L 4128 4666 
L 4128 1753 
Q 4128 841 3676 375 
Q 3225 -91 2344 -91 
Q 1459 -91 1007 375 
Q 556 841 556 1753 
L 556 4666 
z
" transform="scale(0.015625)"/>
       <path id="DejaVuSans-47" d="M 3809 666 
L 3809 1919 
L 2778 1919 
L 2778 2438 
L 4434 2438 
L 4434 434 
Q 4069 175 3628 42 
Q 3188 -91 2688 -91 
Q 1594 -91 976 548 
Q 359 1188 359 2328 
Q 359 3472 976 4111 
Q 1594 4750 2688 4750 
Q 3144 4750 3555 4637 
Q 3966 4525 4313 4306 
L 4313 3634 
Q 3963 3931 3569 4081 
Q 3175 4231 2741 4231 
Q 1884 4231 1454 3753 
Q 1025 3275 1025 2328 
Q 1025 1384 1454 906 
Q 1884 428 2741 428 
Q 3075 428 3337 486 
Q 3600 544 3809 666 
z
" transform="scale(0.015625)"/>
       <path id="DejaVuSans-39" d="M 703 97 
L 703 672 
Q 941 559 1184 500 
Q 1428 441 1663 441 
Q 2288 441 2617 861 
Q 2947 1281 2994 2138 
Q 2813 1869 2534 1725 
Q 2256 1581 1919 1581 
Q 1219 1581 811 2004 
Q 403 2428 403 3163 
Q 403 3881 828 4315 
Q 1253 4750 1959 4750 
Q 2769 4750 3195 4129 
Q 3622 3509 3622 2328 
Q 3622 1225 3098 567 
Q 2575 -91 1691 -91 
Q 1453 -91 1209 -44 
Q 966 3 703 97 
z
M 1959 2075 
Q 2384 2075 2632 2365 
Q 2881 2656 2881 3163 
Q 2881 3666 2632 3958 
Q 2384 4250 1959 4250 
Q 1534 4250 1286 3958 
Q 1038 3666 1038 3163 
Q 1038 2656 1286 2365 
Q 1534 2075 1959 2075 
z
" transform="scale(0.015625)"/>
      </defs>
      <use xlink:href="#DejaVuSans-43"/>
      <use xlink:href="#DejaVuSans-50" transform="translate(69.824219 0)"/>
      <use xlink:href="#DejaVuSans-55" transform="translate(130.126953 0)"/>
      <use xlink:href="#DejaVuSans-20" transform="translate(203.320312 0)"/>
      <use xlink:href="#DejaVuSans-28" transform="translate(235.107422 0)"/>
      <use xlink:href="#DejaVuSans-47" transform="translate(274.121094 0)"/>
      <use xlink:href="#DejaVuSans-65" transform="translate(351.611328 0)"/>
      <use xlink:href="#DejaVuSans-6e" transform="translate(413.134766 0)"/>
      <use xlink:href="#DejaVuSans-6f" transform="translate(476.513672 0)"/>
      <use xlink:href="#DejaVuSans-61" transform="translate(537.695312 0)"/>
      <use xlink:href="#DejaVuSans-20" transform="translate(598.974609 0)"/>
      <use xlink:href="#DejaVuSans-39" transform="translate(630.761719 0)"/>
      <use xlink:href="#DejaVuSans-36" transform="translate(694.384766 0)"/>
      <use xlink:href="#DejaVuSans-63" transform="translate(758.007812 0)"/>
      <use xlink:href="#DejaVuSans-29" transform="translate(812.988281 0)"/>
     </g>
    </g>
    <g id="line2d_45">
     <path d="M 38.08774 63.509158 
L 48.08774 63.509158 
L 58.08774 63.509158 
" style="fill: none; stroke: #ff7f0e; stroke-width: 1.5; stroke-linecap: square"/>
    </g>
    <g id="text_21">
     <!-- GPU (serial k) -->
     <g transform="translate(66.08774 67.009158) scale(0.1 -0.1)">
      <defs>
       <path id="DejaVuSans-6b" d="M 581 4863 
L 1159 4863 
L 1159 1991 
L 2875 3500 
L 3609 3500 
L 1753 1863 
L 3688 0 
L 2938 0 
L 1159 1709 
L 1159 0 
L 581 0 
L 581 4863 
z
" transform="scale(0.015625)"/>
      </defs>
      <use xlink:href="#DejaVuSans-47"/>
      <use xlink:href="#DejaVuSans-50" transform="translate(77.490234 0)"/>
      <use xlink:href="#DejaVuSans-55" transform="translate(137.792969 0)"/>
      <use xlink:href="#DejaVuSans-20" transform="translate(210.986328 0)"/>
      <use xlink:href="#DejaVuSans-28" transform="translate(242.773438 0)"/>
      <use xlink:href="#DejaVuSans-73" transform="translate(281.787109 0)"/>
      <use xlink:href="#DejaVuSans-65" transform="translate(333.886719 0)"/>
      <use xlink:href="#DejaVuSans-72" transform="translate(395.410156 0)"/>
      <use xlink:href="#DejaVuSans-69" transform="translate(436.523438 0)"/>
      <use xlink:href="#DejaVuSans-61" transform="translate(464.306641 0)"/>
      <use xlink:href="#DejaVuSans-6c" transform="translate(525.585938 0)"/>
      <use xlink:href="#DejaVuSans-20" transform="translate(553.369141 0)"/>
      <use xlink:href="#DejaVuSans-6b" transform="translate(585.15625 0)"/>
      <use xlink:href="#DejaVuSans-29" transform="translate(643.066406 0)"/>
     </g>
    </g>
    <g id="line2d_46">
     <path d="M 38.08774 78.187282 
L 48.08774 78.187282 
L 58.08774 78.187282 
" style="fill: none; stroke: #2ca02c; stroke-width: 1.5; stroke-linecap: square"/>
    </g>
    <g id="text_22">
     <!-- GPU (k teams) -->
     <g transform="translate(66.08774 81.687282) scale(0.1 -0.1)">
      <use xlink:href="#DejaVuSans-47"/>
      <use xlink:href="#DejaVuSans-50" transform="translate(77.490234 0)"/>
      <use xlink:href="#DejaVuSans-55" transform="translate(137.792969 0)"/>
      <use xlink:href="#DejaVuSans-20" transform="translate(210.986328 0)"/>
      <use xlink:href="#DejaVuSans-28" transform="translate(242.773438 0)"/>
      <use xlink:href="#DejaVuSans-6b" transform="translate(281.787109 0)"/>
      <use xlink:href="#DejaVuSans-20" transform="translate(339.697266 0)"/>
      <use xlink:href="#DejaVuSans-74" transform="translate(371.484375 0)"/>
      <use xlink:href="#DejaVuSans-65" transform="translate(410.693359 0)"/>
      <use xlink:href="#DejaVuSans-61" transform="translate(472.216797 0)"/>
      <use xlink:href="#DejaVuSans-6d" transform="translate(533.496094 0)"/>
      <use xlink:href="#DejaVuSans-73" transform="translate(630.908203 0)"/>
      <use xlink:href="#DejaVuSans-29" transform="translate(683.007812 0)"/>
     </g>
    </g>
   </g>
  </g>
  <g id="text_23">
   <!-- Time per step (msec) from 32×32 to 1024×1024 -->
   <g style="fill: #ffffff" transform="translate(284.534063 12.118365) scale(0.12 -0.12)">
    <defs>
     <path id="DejaVuSans-54" d="M -19 4666 
L 3928 4666 
L 3928 4134 
L 2272 4134 
L 2272 0 
L 1638 0 
L 1638 4134 
L -19 4134 
L -19 4666 
z
" transform="scale(0.015625)"/>
     <path id="DejaVuSans-70" d="M 1159 525 
L 1159 -1331 
L 581 -1331 
L 581 3500 
L 1159 3500 
L 1159 2969 
Q 1341 3281 1617 3432 
Q 1894 3584 2278 3584 
Q 2916 3584 3314 3078 
Q 3713 2572 3713 1747 
Q 3713 922 3314 415 
Q 2916 -91 2278 -91 
Q 1894 -91 1617 61 
Q 1341 213 1159 525 
z
M 3116 1747 
Q 3116 2381 2855 2742 
Q 2594 3103 2138 3103 
Q 1681 3103 1420 2742 
Q 1159 2381 1159 1747 
Q 1159 1113 1420 752 
Q 1681 391 2138 391 
Q 2594 391 2855 752 
Q 3116 1113 3116 1747 
z
" transform="scale(0.015625)"/>
     <path id="DejaVuSans-66" d="M 2375 4863 
L 2375 4384 
L 1825 4384 
Q 1516 4384 1395 4259 
Q 1275 4134 1275 3809 
L 1275 3500 
L 2222 3500 
L 2222 3053 
L 1275 3053 
L 1275 0 
L 697 0 
L 697 3053 
L 147 3053 
L 147 3500 
L 697 3500 
L 697 3744 
Q 697 4328 969 4595 
Q 1241 4863 1831 4863 
L 2375 4863 
z
" transform="scale(0.015625)"/>
     <path id="DejaVuSans-d7" d="M 4488 3438 
L 3059 2003 
L 4488 575 
L 4116 197 
L 2681 1631 
L 1247 197 
L 878 575 
L 2303 2003 
L 878 3438 
L 1247 3816 
L 2681 2381 
L 4116 3816 
L 4488 3438 
z
" transform="scale(0.015625)"/>
    </defs>
    <use xlink:href="#DejaVuSans-54"/>
    <use xlink:href="#DejaVuSans-69" transform="translate(57.958984 0)"/>
    <use xlink:href="#DejaVuSans-6d" transform="translate(85.742188 0)"/>
    <use xlink:href="#DejaVuSans-65" transform="translate(183.154297 0)"/>
    <use xlink:href="#DejaVuSans-20" transform="translate(244.677734 0)"/>
    <use xlink:href="#DejaVuSans-70" transform="translate(276.464844 0)"/>
    <use xlink:href="#DejaVuSans-65" transform="translate(339.941406 0)"/>
    <use xlink:href="#DejaVuSans-72" transform="translate(401.464844 0)"/>
    <use xlink:href="#DejaVuSans-20" transform="translate(442.578125 0)"/>
    <use xlink:href="#DejaVuSans-73" transform="translate(474.365234 0)"/>
    <use xlink:href="#DejaVuSans-74" transform="translate(526.464844 0)"/>
    <use xlink:href="#DejaVuSans-65" transform="translate(565.673828 0)"/>
    <use xlink:href="#DejaVuSans-70" transform="translate(627.197266 0)"/>
    <use xlink:href="#DejaVuSans-20" transform="translate(690.673828 0)"/>
    <use xlink:href="#DejaVuSans-28" transform="translate(722.460938 0)"/>
    <use xlink:href="#DejaVuSans-6d" transform="translate(761.474609 0)"/>
    <use xlink:href="#DejaVuSans-73" transform="translate(858.886719 0)"/>
    <use xlink:href="#DejaVuSans-65" transform="translate(910.986328 0)"/>
    <use xlink:href="#DejaVuSans-63" transform="translate(972.509766 0)"/>
    <use xlink:href="#DejaVuSans-29" transform="translate(1027.490234 0)"/>
    <use xlink:href="#DejaVuSans-20" transform="translate(1066.503906 0)"/>
    <use xlink:href="#DejaVuSans-66" transform="translate(1098.291016 0)"/>
    <use xlink:href="#DejaVuSans-72" transform="translate(1133.496094 0)"/>
    <use xlink:href="#DejaVuSans-6f" transform="translate(1172.359375 0)"/>
    <use xlink:href="#DejaVuSans-6d" transform="translate(1233.541016 0)"/>
    <use xlink:href="#DejaVuSans-20" transform="translate(1330.953125 0)"/>
    <use xlink:href="#DejaVuSans-33" transform="translate(1362.740234 0)"/>
    <use xlink:href="#DejaVuSans-32" transform="translate(1426.363281 0)"/>
    <use xlink:href="#DejaVuSans-d7" transform="translate(1489.986328 0)"/>
    <use xlink:href="#DejaVuSans-33" transform="translate(1573.775391 0)"/>
    <use xlink:href="#DejaVuSans-32" transform="translate(1637.398438 0)"/>
    <use xlink:href="#DejaVuSans-20" transform="translate(1701.021484 0)"/>
    <use xlink:href="#DejaVuSans-74" transform="translate(1732.808594 0)"/>
    <use xlink:href="#DejaVuSans-6f" transform="translate(1772.017578 0)"/>
    <use xlink:href="#DejaVuSans-20" transform="translate(1833.199219 0)"/>
    <use xlink:href="#DejaVuSans-31" transform="translate(1864.986328 0)"/>
    <use xlink:href="#DejaVuSans-30" transform="translate(1928.609375 0)"/>
    <use xlink:href="#DejaVuSans-32" transform="translate(1992.232422 0)"/>
    <use xlink:href="#DejaVuSans-34" transform="translate(2055.855469 0)"/>
    <use xlink:href="#DejaVuSans-d7" transform="translate(2119.478516 0)"/>
    <use xlink:href="#DejaVuSans-31" transform="translate(2203.267578 0)"/>
    <use xlink:href="#DejaVuSans-30" transform="translate(2266.890625 0)"/>
    <use xlink:href="#DejaVuSans-32" transform="translate(2330.513672 0)"/>
    <use xlink:href="#DejaVuSans-34" transform="translate(2394.136719 0)"/>
   </g>
  </g>
 </g>
 <defs>
  <clipPath id="p9043316d5a">
   <rect x="29.08774" y="35.732595" width="831.91202" height="429.242641"/>
  </clipPath>
 </defs>
</svg>
