<?xml version="1.0" encoding="utf-8" standalone="no"?>
<!DOCTYPE svg PUBLIC "-//W3C//DTD SVG 1.1//EN"
  "http://www.w3.org/Graphics/SVG/1.1/DTD/svg11.dtd">
<svg xmlns:xlink="http://www.w3.org/1999/xlink" width="576pt" height="288pt" viewBox="0 0 576 288" xmlns="http://www.w3.org/2000/svg" version="1.1">
 <metadata>
  <rdf:RDF xmlns:dc="http://purl.org/dc/elements/1.1/" xmlns:cc="http://creativecommons.org/ns#" xmlns:rdf="http://www.w3.org/1999/02/22-rdf-syntax-ns#">
   <cc:Work>
    <dc:type rdf:resource="http://purl.org/dc/dcmitype/StillImage"/>
    <dc:date>2026-03-04T09:53:06.302020</dc:date>
    <dc:format>image/svg+xml</dc:format>
    <dc:creator>
     <cc:Agent>
      <dc:title>Matplotlib v3.10.8, https://matplotlib.org/</dc:title>
     </cc:Agent>
    </dc:creator>
   </cc:Work>
  </rdf:RDF>
 </metadata>
 <defs>
  <style type="text/css">*{stroke-linejoin: round; stroke-linecap: butt}</style>
 </defs>
 <g id="figure_1">
  <g id="patch_1">
   <path d="M 0 288 
L 576 288 
L 576 0 
L 0 0 
L 0 288 
z
" style="fill: none"/>
  </g>
  <g id="axes_1">
   <g id="patch_2">
    <path d="M 35.45024 248.975236 
L 572.99976 248.975236 
L 572.99976 35.732595 
L 35.45024 35.732595 
z
" style="fill: #ffffff"/>
   </g>
   <g id="FillBetweenPolyCollection_1">
    <path d="M 59.884309 234.564767 
L 59.884309 234.944675 
L 108.752447 233.776163 
L 157.620585 232.803634 
L 206.488724 229.989973 
L 255.356862 225.231537 
L 304.225 217.136654 
L 353.093138 206.219285 
L 401.961276 186.111471 
L 450.829415 158.637988 
L 499.697553 125.306569 
L 548.565691 82.651651 
L 548.565691 81.713751 
L 548.565691 81.713751 
L 499.697553 124.9993 
L 450.829415 158.471549 
L 401.961276 186.079265 
L 353.093138 205.86605 
L 304.225 217.014411 
L 255.356862 224.875139 
L 206.488724 229.616318 
L 157.620585 232.461157 
L 108.752447 233.403537 
L 59.884309 234.564767 
z
" clip-path="url(#p6e7383fd35)" style="fill: #1f77b4; fill-opacity: 0.15"/>
   </g>
   <g id="FillBetweenPolyCollection_2">
    <path d="M 59.884309 223.637246 
L 59.884309 223.977432 
L 108.752447 223.592911 
L 157.620585 222.668755 
L 206.488724 220.80012 
L 255.356862 219.401472 
L 304.225 213.984434 
L 353.093138 208.022738 
L 401.961276 193.178615 
L 450.829415 179.395476 
L 499.697553 153.611308 
L 548.565691 121.2242 
L 548.565691 120.975803 
L 548.565691 120.975803 
L 499.697553 153.205496 
L 450.829415 179.021266 
L 401.961276 192.894425 
L 353.093138 207.681724 
L 304.225 213.641272 
L 255.356862 219.091663 
L 206.488724 220.447137 
L 157.620585 222.318937 
L 108.752447 223.242131 
L 59.884309 223.637246 
z
" clip-path="url(#p6e7383fd35)" style="fill: #ff7f0e; fill-opacity: 0.15"/>
   </g>
   <g id="FillBetweenPolyCollection_3">
    <path d="M 59.884309 215.584934 
L 59.884309 215.985885 
L 108.752447 215.02727 
L 157.620585 213.86197 
L 206.488724 213.405766 
L 255.356862 211.151007 
L 304.225 209.674574 
L 353.093138 205.691182 
L 401.961276 199.099023 
L 450.829415 190.109407 
L 499.697553 173.463669 
L 548.565691 148.778478 
L 548.565691 148.275602 
L 548.565691 148.275602 
L 499.697553 172.705305 
L 450.829415 188.282989 
L 401.961276 198.419782 
L 353.093138 205.226946 
L 304.225 209.192185 
L 255.356862 210.729072 
L 206.488724 213.055406 
L 157.620585 213.535573 
L 108.752447 214.660979 
L 59.884309 215.584934 
z
" clip-path="url(#p6e7383fd35)" style="fill: #2ca02c; fill-opacity: 0.15"/>
   </g>
   <g id="matplotlib.axis_1">
    <g id="xtick_1">
     <g id="line2d_1">
      <path d="M 59.884309 248.975236 
L 59.884309 35.732595 
" clip-path="url(#p6e7383fd35)" style="fill: none; stroke-dasharray: 0.5,0.825; stroke-dashoffset: 0; stroke: #b0b0b0; stroke-width: 0.5"/>
     </g>
     <g id="line2d_2">
      <defs>
       <path id="mad37e17283" d="M 0 0 
L 0 3.5 
" style="stroke: #ffffff; stroke-width: 0.8"/>
      </defs>
      <g>
       <use xlink:href="#mad37e17283" x="59.884309" y="248.975236" style="fill: #ffffff; stroke: #ffffff; stroke-width: 0.8"/>
      </g>
     </g>
     <g id="text_1">
      <!-- 1x -->
      <g style="fill: #ffffff" transform="translate(57.493404 270.032298) rotate(-45) scale(0.1 -0.1)">
       <defs>
        <path id="DejaVuSans-31" d="M 794 531 
L 1825 531 
L 1825 4091 
L 703 3866 
L 703 4441 
L 1819 4666 
L 2450 4666 
L 2450 531 
L 3481 531 
L 3481 0 
L 794 0 
L 794 531 
z
" transform="scale(0.015625)"/>
        <path id="DejaVuSans-78" d="M 3513 3500 
L 2247 1797 
L 3578 0 
L 2900 0 
L 1881 1375 
L 863 0 
L 184 0 
L 1544 1831 
L 300 3500 
L 978 3500 
L 1906 2253 
L 2834 3500 
L 3513 3500 
z
" transform="scale(0.015625)"/>
       </defs>
       <use xlink:href="#DejaVuSans-31"/>
       <use xlink:href="#DejaVuSans-78" transform="translate(63.623047 0)"/>
      </g>
     </g>
    </g>
    <g id="xtick_2">
     <g id="line2d_3">
      <path d="M 108.752447 248.975236 
L 108.752447 35.732595 
" clip-path="url(#p6e7383fd35)" style="fill: none; stroke-dasharray: 0.5,0.825; stroke-dashoffset: 0; stroke: #b0b0b0; stroke-width: 0.5"/>
     </g>
     <g id="line2d_4">
      <g>
       <use xlink:href="#mad37e17283" x="108.752447" y="248.975236" style="fill: #ffffff; stroke: #ffffff; stroke-width: 0.8"/>
      </g>
     </g>
     <g id="text_2">
      <!-- 2x -->
      <g style="fill: #ffffff" transform="translate(106.361542 270.032298) rotate(-45) scale(0.1 -0.1)">
       <defs>
        <path id="DejaVuSans-32" d="M 1228 531 
L 3431 531 
L 3431 0 
L 469 0 
L 469 531 
Q 828 903 1448 1529 
Q 2069 2156 2228 2338 
Q 2531 2678 2651 2914 
Q 2772 3150 2772 3378 
Q 2772 3750 2511 3984 
Q 2250 4219 1831 4219 
Q 1534 4219 1204 4116 
Q 875 4013 500 3803 
L 500 4441 
Q 881 4594 1212 4672 
Q 1544 4750 1819 4750 
Q 2544 4750 2975 4387 
Q 3406 4025 3406 3419 
Q 3406 3131 3298 2873 
Q 3191 2616 2906 2266 
Q 2828 2175 2409 1742 
Q 1991 1309 1228 531 
z
" transform="scale(0.015625)"/>
       </defs>
       <use xlink:href="#DejaVuSans-32"/>
       <use xlink:href="#DejaVuSans-78" transform="translate(63.623047 0)"/>
      </g>
     </g>
    </g>
    <g id="xtick_3">
     <g id="line2d_5">
      <path d="M 157.620585 248.975236 
L 157.620585 35.732595 
" clip-path="url(#p6e7383fd35)" style="fill: none; stroke-dasharray: 0.5,0.825; stroke-dashoffset: 0; stroke: #b0b0b0; stroke-width: 0.5"/>
     </g>
     <g id="line2d_6">
      <g>
       <use xlink:href="#mad37e17283" x="157.620585" y="248.975236" style="fill: #ffffff; stroke: #ffffff; stroke-width: 0.8"/>
      </g>
     </g>
     <g id="text_3">
      <!-- 4x -->
      <g style="fill: #ffffff" transform="translate(155.229681 270.032298) rotate(-45) scale(0.1 -0.1)">
       <defs>
        <path id="DejaVuSans-34" d="M 2419 4116 
L 825 1625 
L 2419 1625 
L 2419 4116 
z
M 2253 4666 
L 3047 4666 
L 3047 1625 
L 3713 1625 
L 3713 1100 
L 3047 1100 
L 3047 0 
L 2419 0 
L 2419 1100 
L 313 1100 
L 313 1709 
L 2253 4666 
z
" transform="scale(0.015625)"/>
       </defs>
       <use xlink:href="#DejaVuSans-34"/>
       <use xlink:href="#DejaVuSans-78" transform="translate(63.623047 0)"/>
      </g>
     </g>
    </g>
    <g id="xtick_4">
     <g id="line2d_7">
      <path d="M 206.488724 248.975236 
L 206.488724 35.732595 
" clip-path="url(#p6e7383fd35)" style="fill: none; stroke-dasharray: 0.5,0.825; stroke-dashoffset: 0; stroke: #b0b0b0; stroke-width: 0.5"/>
     </g>
     <g id="line2d_8">
      <g>
       <use xlink:href="#mad37e17283" x="206.488724" y="248.975236" style="fill: #ffffff; stroke: #ffffff; stroke-width: 0.8"/>
      </g>
     </g>
     <g id="text_4">
      <!-- 8x -->
      <g style="fill: #ffffff" transform="translate(204.097819 270.032298) rotate(-45) scale(0.1 -0.1)">
       <defs>
        <path id="DejaVuSans-38" d="M 2034 2216 
Q 1584 2216 1326 1975 
Q 1069 1734 1069 1313 
Q 1069 891 1326 650 
Q 1584 409 2034 409 
Q 2484 409 2743 651 
Q 3003 894 3003 1313 
Q 3003 1734 2745 1975 
Q 2488 2216 2034 2216 
z
M 1403 2484 
Q 997 2584 770 2862 
Q 544 3141 544 3541 
Q 544 4100 942 4425 
Q 1341 4750 2034 4750 
Q 2731 4750 3128 4425 
Q 3525 4100 3525 3541 
Q 3525 3141 3298 2862 
Q 3072 2584 2669 2484 
Q 3125 2378 3379 2068 
Q 3634 1759 3634 1313 
Q 3634 634 3220 271 
Q 2806 -91 2034 -91 
Q 1263 -91 848 271 
Q 434 634 434 1313 
Q 434 1759 690 2068 
Q 947 2378 1403 2484 
z
M 1172 3481 
Q 1172 3119 1398 2916 
Q 1625 2713 2034 2713 
Q 2441 2713 2670 2916 
Q 2900 3119 2900 3481 
Q 2900 3844 2670 4047 
Q 2441 4250 2034 4250 
Q 1625 4250 1398 4047 
Q 1172 3844 1172 3481 
z
" transform="scale(0.015625)"/>
       </defs>
       <use xlink:href="#DejaVuSans-38"/>
       <use xlink:href="#DejaVuSans-78" transform="translate(63.623047 0)"/>
      </g>
     </g>
    </g>
    <g id="xtick_5">
     <g id="line2d_9">
      <path d="M 255.356862 248.975236 
L 255.356862 35.732595 
" clip-path="url(#p6e7383fd35)" style="fill: none; stroke-dasharray: 0.5,0.825; stroke-dashoffset: 0; stroke: #b0b0b0; stroke-width: 0.5"/>
     </g>
     <g id="line2d_10">
      <g>
       <use xlink:href="#mad37e17283" x="255.356862" y="248.975236" style="fill: #ffffff; stroke: #ffffff; stroke-width: 0.8"/>
      </g>
     </g>
     <g id="text_5">
      <!-- 16x -->
      <g style="fill: #ffffff" transform="translate(250.716474 274.531265) rotate(-45) scale(0.1 -0.1)">
       <defs>
        <path id="DejaVuSans-36" d="M 2113 2584 
Q 1688 2584 1439 2293 
Q 1191 2003 1191 1497 
Q 1191 994 1439 701 
Q 1688 409 2113 409 
Q 2538 409 2786 701 
Q 3034 994 3034 1497 
Q 3034 2003 2786 2293 
Q 2538 2584 2113 2584 
z
M 3366 4563 
L 3366 3988 
Q 3128 4100 2886 4159 
Q 2644 4219 2406 4219 
Q 1781 4219 1451 3797 
Q 1122 3375 1075 2522 
Q 1259 2794 1537 2939 
Q 1816 3084 2150 3084 
Q 2853 3084 3261 2657 
Q 3669 2231 3669 1497 
Q 3669 778 3244 343 
Q 2819 -91 2113 -91 
Q 1303 -91 875 529 
Q 447 1150 447 2328 
Q 447 3434 972 4092 
Q 1497 4750 2381 4750 
Q 2619 4750 2861 4703 
Q 3103 4656 3366 4563 
z
" transform="scale(0.015625)"/>
       </defs>
       <use xlink:href="#DejaVuSans-31"/>
       <use xlink:href="#DejaVuSans-36" transform="translate(63.623047 0)"/>
       <use xlink:href="#DejaVuSans-78" transform="translate(127.246094 0)"/>
      </g>
     </g>
    </g>
    <g id="xtick_6">
     <g id="line2d_11">
      <path d="M 304.225 248.975236 
L 304.225 35.732595 
" clip-path="url(#p6e7383fd35)" style="fill: none; stroke-dasharray: 0.5,0.825; stroke-dashoffset: 0; stroke: #b0b0b0; stroke-width: 0.5"/>
     </g>
     <g id="line2d_12">
      <g>
       <use xlink:href="#mad37e17283" x="304.225" y="248.975236" style="fill: #ffffff; stroke: #ffffff; stroke-width: 0.8"/>
      </g>
     </g>
     <g id="text_6">
      <!-- 32x -->
      <g style="fill: #ffffff" transform="translate(299.584612 274.531265) rotate(-45) scale(0.1 -0.1)">
       <defs>
        <path id="DejaVuSans-33" d="M 2597 2516 
Q 3050 2419 3304 2112 
Q 3559 1806 3559 1356 
Q 3559 666 3084 287 
Q 2609 -91 1734 -91 
Q 1441 -91 1130 -33 
Q 819 25 488 141 
L 488 750 
Q 750 597 1062 519 
Q 1375 441 1716 441 
Q 2309 441 2620 675 
Q 2931 909 2931 1356 
Q 2931 1769 2642 2001 
Q 2353 2234 1838 2234 
L 1294 2234 
L 1294 2753 
L 1863 2753 
Q 2328 2753 2575 2939 
Q 2822 3125 2822 3475 
Q 2822 3834 2567 4026 
Q 2313 4219 1838 4219 
Q 1578 4219 1281 4162 
Q 984 4106 628 3988 
L 628 4550 
Q 988 4650 1302 4700 
Q 1616 4750 1894 4750 
Q 2613 4750 3031 4423 
Q 3450 4097 3450 3541 
Q 3450 3153 3228 2886 
Q 3006 2619 2597 2516 
z
" transform="scale(0.015625)"/>
       </defs>
       <use xlink:href="#DejaVuSans-33"/>
       <use xlink:href="#DejaVuSans-32" transform="translate(63.623047 0)"/>
       <use xlink:href="#DejaVuSans-78" transform="translate(127.246094 0)"/>
      </g>
     </g>
    </g>
    <g id="xtick_7">
     <g id="line2d_13">
      <path d="M 353.093138 248.975236 
L 353.093138 35.732595 
" clip-path="url(#p6e7383fd35)" style="fill: none; stroke-dasharray: 0.5,0.825; stroke-dashoffset: 0; stroke: #b0b0b0; stroke-width: 0.5"/>
     </g>
     <g id="line2d_14">
      <g>
       <use xlink:href="#mad37e17283" x="353.093138" y="248.975236" style="fill: #ffffff; stroke: #ffffff; stroke-width: 0.8"/>
      </g>
     </g>
     <g id="text_7">
      <!-- 64x -->
      <g style="fill: #ffffff" transform="translate(348.45275 274.531265) rotate(-45) scale(0.1 -0.1)">
       <use xlink:href="#DejaVuSans-36"/>
       <use xlink:href="#DejaVuSans-34" transform="translate(63.623047 0)"/>
       <use xlink:href="#DejaVuSans-78" transform="translate(127.246094 0)"/>
      </g>
     </g>
    </g>
    <g id="xtick_8">
     <g id="line2d_15">
      <path d="M 401.961276 248.975236 
L 401.961276 35.732595 
" clip-path="url(#p6e7383fd35)" style="fill: none; stroke-dasharray: 0.5,0.825; stroke-dashoffset: 0; stroke: #b0b0b0; stroke-width: 0.5"/>
     </g>
     <g id="line2d_16">
      <g>
       <use xlink:href="#mad37e17283" x="401.961276" y="248.975236" style="fill: #ffffff; stroke: #ffffff; stroke-width: 0.8"/>
      </g>
     </g>
     <g id="text_8">
      <!-- 128x -->
      <g style="fill: #ffffff" transform="translate(395.071405 279.030232) rotate(-45) scale(0.1 -0.1)">
       <use xlink:href="#DejaVuSans-31"/>
       <use xlink:href="#DejaVuSans-32" transform="translate(63.623047 0)"/>
       <use xlink:href="#DejaVuSans-38" transform="translate(127.246094 0)"/>
       <use xlink:href="#DejaVuSans-78" transform="translate(190.869141 0)"/>
      </g>
     </g>
    </g>
    <g id="xtick_9">
     <g id="line2d_17">
      <path d="M 450.829415 248.975236 
L 450.829415 35.732595 
" clip-path="url(#p6e7383fd35)" style="fill: none; stroke-dasharray: 0.5,0.825; stroke-dashoffset: 0; stroke: #b0b0b0; stroke-width: 0.5"/>
     </g>
     <g id="line2d_18">
      <g>
       <use xlink:href="#mad37e17283" x="450.829415" y="248.975236" style="fill: #ffffff; stroke: #ffffff; stroke-width: 0.8"/>
      </g>
     </g>
     <g id="text_9">
      <!-- 256x -->
      <g style="fill: #ffffff" transform="translate(443.939543 279.030232) rotate(-45) scale(0.1 -0.1)">
       <defs>
        <path id="DejaVuSans-35" d="M 691 4666 
L 3169 4666 
L 3169 4134 
L 1269 4134 
L 1269 2991 
Q 1406 3038 1543 3061 
Q 1681 3084 1819 3084 
Q 2600 3084 3056 2656 
Q 3513 2228 3513 1497 
Q 3513 744 3044 326 
Q 2575 -91 1722 -91 
Q 1428 -91 1123 -41 
Q 819 9 494 109 
L 494 744 
Q 775 591 1075 516 
Q 1375 441 1709 441 
Q 2250 441 2565 725 
Q 2881 1009 2881 1497 
Q 2881 1984 2565 2268 
Q 2250 2553 1709 2553 
Q 1456 2553 1204 2497 
Q 953 2441 691 2322 
L 691 4666 
z
" transform="scale(0.015625)"/>
       </defs>
       <use xlink:href="#DejaVuSans-32"/>
       <use xlink:href="#DejaVuSans-35" transform="translate(63.623047 0)"/>
       <use xlink:href="#DejaVuSans-36" transform="translate(127.246094 0)"/>
       <use xlink:href="#DejaVuSans-78" transform="translate(190.869141 0)"/>
      </g>
     </g>
    </g>
    <g id="xtick_10">
     <g id="line2d_19">
      <path d="M 499.697553 248.975236 
L 499.697553 35.732595 
" clip-path="url(#p6e7383fd35)" style="fill: none; stroke-dasharray: 0.5,0.825; stroke-dashoffset: 0; stroke: #b0b0b0; stroke-width: 0.5"/>
     </g>
     <g id="line2d_20">
      <g>
       <use xlink:href="#mad37e17283" x="499.697553" y="248.975236" style="fill: #ffffff; stroke: #ffffff; stroke-width: 0.8"/>
      </g>
     </g>
     <g id="text_10">
      <!-- 512x -->
      <g style="fill: #ffffff" transform="translate(492.807681 279.030232) rotate(-45) scale(0.1 -0.1)">
       <use xlink:href="#DejaVuSans-35"/>
       <use xlink:href="#DejaVuSans-31" transform="translate(63.623047 0)"/>
       <use xlink:href="#DejaVuSans-32" transform="translate(127.246094 0)"/>
       <use xlink:href="#DejaVuSans-78" transform="translate(190.869141 0)"/>
      </g>
     </g>
    </g>
    <g id="xtick_11">
     <g id="line2d_21">
      <path d="M 548.565691 248.975236 
L 548.565691 35.732595 
" clip-path="url(#p6e7383fd35)" style="fill: none; stroke-dasharray: 0.5,0.825; stroke-dashoffset: 0; stroke: #b0b0b0; stroke-width: 0.5"/>
     </g>
     <g id="line2d_22">
      <g>
       <use xlink:href="#mad37e17283" x="548.565691" y="248.975236" style="fill: #ffffff; stroke: #ffffff; stroke-width: 0.8"/>
      </g>
     </g>
     <g id="text_11">
      <!-- 1024x -->
      <g style="fill: #ffffff" transform="translate(539.426336 283.529199) rotate(-45) scale(0.1 -0.1)">
       <defs>
        <path id="DejaVuSans-30" d="M 2034 4250 
Q 1547 4250 1301 3770 
Q 1056 3291 1056 2328 
Q 1056 1369 1301 889 
Q 1547 409 2034 409 
Q 2525 409 2770 889 
Q 3016 1369 3016 2328 
Q 3016 3291 2770 3770 
Q 2525 4250 2034 4250 
z
M 2034 4750 
Q 2819 4750 3233 4129 
Q 3647 3509 3647 2328 
Q 3647 1150 3233 529 
Q 2819 -91 2034 -91 
Q 1250 -91 836 529 
Q 422 1150 422 2328 
Q 422 3509 836 4129 
Q 1250 4750 2034 4750 
z
" transform="scale(0.015625)"/>
       </defs>
       <use xlink:href="#DejaVuSans-31"/>
       <use xlink:href="#DejaVuSans-30" transform="translate(63.623047 0)"/>
       <use xlink:href="#DejaVuSans-32" transform="translate(127.246094 0)"/>
       <use xlink:href="#DejaVuSans-34" transform="translate(190.869141 0)"/>
       <use xlink:href="#DejaVuSans-78" transform="translate(254.492188 0)"/>
      </g>
     </g>
    </g>
   </g>
   <g id="matplotlib.axis_2">
    <g id="ytick_1">
     <g id="line2d_23">
      <path d="M 35.45024 221.734226 
L 572.99976 221.734226 
" clip-path="url(#p6e7383fd35)" style="fill: none; stroke-dasharray: 0.5,0.825; stroke-dashoffset: 0; stroke: #b0b0b0; stroke-width: 0.5"/>
     </g>
     <g id="line2d_24">
      <defs>
       <path id="m6c99031c32" d="M 0 0 
L -3.5 0 
" style="stroke: #ffffff; stroke-width: 0.8"/>
      </defs>
      <g>
       <use xlink:href="#m6c99031c32" x="35.45024" y="221.734226" style="fill: #ffffff; stroke: #ffffff; stroke-width: 0.8"/>
      </g>
     </g>
     <g id="text_12">
      <!-- 100 -->
      <g style="fill: #ffffff" transform="translate(9.36274 225.533445) scale(0.1 -0.1)">
       <use xlink:href="#DejaVuSans-31"/>
       <use xlink:href="#DejaVuSans-30" transform="translate(63.623047 0)"/>
       <use xlink:href="#DejaVuSans-30" transform="translate(127.246094 0)"/>
      </g>
     </g>
    </g>
    <g id="ytick_2">
     <g id="line2d_25">
      <path d="M 35.45024 174.813666 
L 572.99976 174.813666 
" clip-path="url(#p6e7383fd35)" style="fill: none; stroke-dasharray: 0.5,0.825; stroke-dashoffset: 0; stroke: #b0b0b0; stroke-width: 0.5"/>
     </g>
     <g id="line2d_26">
      <g>
       <use xlink:href="#m6c99031c32" x="35.45024" y="174.813666" style="fill: #ffffff; stroke: #ffffff; stroke-width: 0.8"/>
      </g>
     </g>
     <g id="text_13">
      <!-- 200 -->
      <g style="fill: #ffffff" transform="translate(9.36274 178.612885) scale(0.1 -0.1)">
       <use xlink:href="#DejaVuSans-32"/>
       <use xlink:href="#DejaVuSans-30" transform="translate(63.623047 0)"/>
       <use xlink:href="#DejaVuSans-30" transform="translate(127.246094 0)"/>
      </g>
     </g>
    </g>
    <g id="ytick_3">
     <g id="line2d_27">
      <path d="M 35.45024 112.788059 
L 572.99976 112.788059 
" clip-path="url(#p6e7383fd35)" style="fill: none; stroke-dasharray: 0.5,0.825; stroke-dashoffset: 0; stroke: #b0b0b0; stroke-width: 0.5"/>
     </g>
     <g id="line2d_28">
      <g>
       <use xlink:href="#m6c99031c32" x="35.45024" y="112.788059" style="fill: #ffffff; stroke: #ffffff; stroke-width: 0.8"/>
      </g>
     </g>
     <g id="text_14">
      <!-- 500 -->
      <g style="fill: #ffffff" transform="translate(9.36274 116.587278) scale(0.1 -0.1)">
       <use xlink:href="#DejaVuSans-35"/>
       <use xlink:href="#DejaVuSans-30" transform="translate(63.623047 0)"/>
       <use xlink:href="#DejaVuSans-30" transform="translate(127.246094 0)"/>
      </g>
     </g>
    </g>
    <g id="ytick_4">
     <g id="line2d_29">
      <path d="M 35.45024 65.867499 
L 572.99976 65.867499 
" clip-path="url(#p6e7383fd35)" style="fill: none; stroke-dasharray: 0.5,0.825; stroke-dashoffset: 0; stroke: #b0b0b0; stroke-width: 0.5"/>
     </g>
     <g id="line2d_30">
      <g>
       <use xlink:href="#m6c99031c32" x="35.45024" y="65.867499" style="fill: #ffffff; stroke: #ffffff; stroke-width: 0.8"/>
      </g>
     </g>
     <g id="text_15">
      <!-- 1000 -->
      <g style="fill: #ffffff" transform="translate(3.00024 69.666718) scale(0.1 -0.1)">
       <use xlink:href="#DejaVuSans-31"/>
       <use xlink:href="#DejaVuSans-30" transform="translate(63.623047 0)"/>
       <use xlink:href="#DejaVuSans-30" transform="translate(127.246094 0)"/>
       <use xlink:href="#DejaVuSans-30" transform="translate(190.869141 0)"/>
      </g>
     </g>
    </g>
   </g>
   <g id="line2d_31">
    <path d="M 381.679166 248.975236 
L 381.679166 35.732595 
" clip-path="url(#p6e7383fd35)" style="fill: none; stroke-dasharray: 5.55,2.4; stroke-dashoffset: 0; stroke: #1f77b4; stroke-width: 1.5"/>
   </g>
   <g id="line2d_32">
    <path d="M 59.884309 239.282389 
L 108.752447 238.311211 
L 157.620585 235.780665 
L 206.488724 230.924292 
L 255.356862 224.99962 
L 304.225 210.917404 
L 353.093138 197.867017 
L 401.961276 172.467605 
L 450.829415 139.612709 
L 499.697553 95.995354 
L 548.565691 45.425442 
" clip-path="url(#p6e7383fd35)" style="fill: none; stroke: #1f77b4; stroke-width: 1.5; stroke-linecap: square"/>
   </g>
   <g id="line2d_33">
    <defs>
     <path id="m7e718cbea2" d="M 0 3 
C 0.795609 3 1.55874 2.683901 2.12132 2.12132 
C 2.683901 1.55874 3 0.795609 3 0 
C 3 -0.795609 2.683901 -1.55874 2.12132 -2.12132 
C 1.55874 -2.683901 0.795609 -3 0 -3 
C -0.795609 -3 -1.55874 -2.683901 -2.12132 -2.12132 
C -2.683901 -1.55874 -3 -0.795609 -3 0 
C -3 0.795609 -2.683901 1.55874 -2.12132 2.12132 
C -1.55874 2.683901 -0.795609 3 0 3 
z
" style="stroke: #1f77b4"/>
    </defs>
    <g clip-path="url(#p6e7383fd35)">
     <use xlink:href="#m7e718cbea2" x="59.884309" y="239.282389" style="fill: #1f77b4; stroke: #1f77b4"/>
     <use xlink:href="#m7e718cbea2" x="108.752447" y="238.311211" style="fill: #1f77b4; stroke: #1f77b4"/>
     <use xlink:href="#m7e718cbea2" x="157.620585" y="235.780665" style="fill: #1f77b4; stroke: #1f77b4"/>
     <use xlink:href="#m7e718cbea2" x="206.488724" y="230.924292" style="fill: #1f77b4; stroke: #1f77b4"/>
     <use xlink:href="#m7e718cbea2" x="255.356862" y="224.99962" style="fill: #1f77b4; stroke: #1f77b4"/>
     <use xlink:href="#m7e718cbea2" x="304.225" y="210.917404" style="fill: #1f77b4; stroke: #1f77b4"/>
     <use xlink:href="#m7e718cbea2" x="353.093138" y="197.867017" style="fill: #1f77b4; stroke: #1f77b4"/>
     <use xlink:href="#m7e718cbea2" x="401.961276" y="172.467605" style="fill: #1f77b4; stroke: #1f77b4"/>
     <use xlink:href="#m7e718cbea2" x="450.829415" y="139.612709" style="fill: #1f77b4; stroke: #1f77b4"/>
     <use xlink:href="#m7e718cbea2" x="499.697553" y="95.995354" style="fill: #1f77b4; stroke: #1f77b4"/>
     <use xlink:href="#m7e718cbea2" x="548.565691" y="45.425442" style="fill: #1f77b4; stroke: #1f77b4"/>
    </g>
   </g>
   <g id="line2d_34">
    <path d="M 59.884309 234.754454 
L 108.752447 233.589596 
L 157.620585 232.632182 
L 206.488724 229.80289 
L 255.356862 225.053104 
L 304.225 217.075505 
L 353.093138 206.042437 
L 401.961276 186.095366 
L 450.829415 158.554718 
L 499.697553 125.15276 
L 548.565691 82.181076 
" clip-path="url(#p6e7383fd35)" style="fill: none; stroke: #ff7f0e; stroke-width: 1.5; stroke-linecap: square"/>
   </g>
   <g id="line2d_35">
    <defs>
     <path id="mbe173c089e" d="M 0 3 
C 0.795609 3 1.55874 2.683901 2.12132 2.12132 
C 2.683901 1.55874 3 0.795609 3 0 
C 3 -0.795609 2.683901 -1.55874 2.12132 -2.12132 
C 1.55874 -2.683901 0.795609 -3 0 -3 
C -0.795609 -3 -1.55874 -2.683901 -2.12132 -2.12132 
C -2.683901 -1.55874 -3 -0.795609 -3 0 
C -3 0.795609 -2.683901 1.55874 -2.12132 2.12132 
C -1.55874 2.683901 -0.795609 3 0 3 
z
" style="stroke: #ff7f0e"/>
    </defs>
    <g clip-path="url(#p6e7383fd35)">
     <use xlink:href="#mbe173c089e" x="59.884309" y="234.754454" style="fill: #ff7f0e; stroke: #ff7f0e"/>
     <use xlink:href="#mbe173c089e" x="108.752447" y="233.589596" style="fill: #ff7f0e; stroke: #ff7f0e"/>
     <use xlink:href="#mbe173c089e" x="157.620585" y="232.632182" style="fill: #ff7f0e; stroke: #ff7f0e"/>
     <use xlink:href="#mbe173c089e" x="206.488724" y="229.80289" style="fill: #ff7f0e; stroke: #ff7f0e"/>
     <use xlink:href="#mbe173c089e" x="255.356862" y="225.053104" style="fill: #ff7f0e; stroke: #ff7f0e"/>
     <use xlink:href="#mbe173c089e" x="304.225" y="217.075505" style="fill: #ff7f0e; stroke: #ff7f0e"/>
     <use xlink:href="#mbe173c089e" x="353.093138" y="206.042437" style="fill: #ff7f0e; stroke: #ff7f0e"/>
     <use xlink:href="#mbe173c089e" x="401.961276" y="186.095366" style="fill: #ff7f0e; stroke: #ff7f0e"/>
     <use xlink:href="#mbe173c089e" x="450.829415" y="158.554718" style="fill: #ff7f0e; stroke: #ff7f0e"/>
     <use xlink:href="#mbe173c089e" x="499.697553" y="125.15276" style="fill: #ff7f0e; stroke: #ff7f0e"/>
     <use xlink:href="#mbe173c089e" x="548.565691" y="82.181076" style="fill: #ff7f0e; stroke: #ff7f0e"/>
    </g>
   </g>
   <g id="line2d_36">
    <path d="M 59.884309 223.804094 
L 108.752447 223.417074 
L 157.620585 222.488431 
L 206.488724 220.622604 
L 255.356862 219.234858 
L 304.225 213.812611 
L 353.093138 207.862075 
L 401.961276 193.000081 
L 450.829415 179.220546 
L 499.697553 153.453953 
L 548.565691 121.136058 
" clip-path="url(#p6e7383fd35)" style="fill: none; stroke: #2ca02c; stroke-width: 1.5; stroke-linecap: square"/>
   </g>
   <g id="line2d_37">
    <defs>
     <path id="m0924aa9816" d="M 0 3 
C 0.795609 3 1.55874 2.683901 2.12132 2.12132 
C 2.683901 1.55874 3 0.795609 3 0 
C 3 -0.795609 2.683901 -1.55874 2.12132 -2.12132 
C 1.55874 -2.683901 0.795609 -3 0 -3 
C -0.795609 -3 -1.55874 -2.683901 -2.12132 -2.12132 
C -2.683901 -1.55874 -3 -0.795609 -3 0 
C -3 0.795609 -2.683901 1.55874 -2.12132 2.12132 
C -1.55874 2.683901 -0.795609 3 0 3 
z
" style="stroke: #2ca02c"/>
    </defs>
    <g clip-path="url(#p6e7383fd35)">
     <use xlink:href="#m0924aa9816" x="59.884309" y="223.804094" style="fill: #2ca02c; stroke: #2ca02c"/>
     <use xlink:href="#m0924aa9816" x="108.752447" y="223.417074" style="fill: #2ca02c; stroke: #2ca02c"/>
     <use xlink:href="#m0924aa9816" x="157.620585" y="222.488431" style="fill: #2ca02c; stroke: #2ca02c"/>
     <use xlink:href="#m0924aa9816" x="206.488724" y="220.622604" style="fill: #2ca02c; stroke: #2ca02c"/>
     <use xlink:href="#m0924aa9816" x="255.356862" y="219.234858" style="fill: #2ca02c; stroke: #2ca02c"/>
     <use xlink:href="#m0924aa9816" x="304.225" y="213.812611" style="fill: #2ca02c; stroke: #2ca02c"/>
     <use xlink:href="#m0924aa9816" x="353.093138" y="207.862075" style="fill: #2ca02c; stroke: #2ca02c"/>
     <use xlink:href="#m0924aa9816" x="401.961276" y="193.000081" style="fill: #2ca02c; stroke: #2ca02c"/>
     <use xlink:href="#m0924aa9816" x="450.829415" y="179.220546" style="fill: #2ca02c; stroke: #2ca02c"/>
     <use xlink:href="#m0924aa9816" x="499.697553" y="153.453953" style="fill: #2ca02c; stroke: #2ca02c"/>
     <use xlink:href="#m0924aa9816" x="548.565691" y="121.136058" style="fill: #2ca02c; stroke: #2ca02c"/>
    </g>
   </g>
   <g id="line2d_38">
    <path d="M 59.884309 215.797333 
L 108.752447 214.848173 
L 157.620585 213.712553 
L 206.488724 213.253613 
L 255.356862 210.944195 
L 304.225 209.478321 
L 353.093138 205.476721 
L 401.961276 198.825828 
L 450.829415 189.589673 
L 499.697553 173.204212 
L 548.565691 148.60667 
" clip-path="url(#p6e7383fd35)" style="fill: none; stroke: #d62728; stroke-width: 1.5; stroke-linecap: square"/>
   </g>
   <g id="line2d_39">
    <defs>
     <path id="mf3f54591c4" d="M 0 3 
C 0.795609 3 1.55874 2.683901 2.12132 2.12132 
C 2.683901 1.55874 3 0.795609 3 0 
C 3 -0.795609 2.683901 -1.55874 2.12132 -2.12132 
C 1.55874 -2.683901 0.795609 -3 0 -3 
C -0.795609 -3 -1.55874 -2.683901 -2.12132 -2.12132 
C -2.683901 -1.55874 -3 -0.795609 -3 0 
C -3 0.795609 -2.683901 1.55874 -2.12132 2.12132 
C -1.55874 2.683901 -0.795609 3 0 3 
z
" style="stroke: #d62728"/>
    </defs>
    <g clip-path="url(#p6e7383fd35)">
     <use xlink:href="#mf3f54591c4" x="59.884309" y="215.797333" style="fill: #d62728; stroke: #d62728"/>
     <use xlink:href="#mf3f54591c4" x="108.752447" y="214.848173" style="fill: #d62728; stroke: #d62728"/>
     <use xlink:href="#mf3f54591c4" x="157.620585" y="213.712553" style="fill: #d62728; stroke: #d62728"/>
     <use xlink:href="#mf3f54591c4" x="206.488724" y="213.253613" style="fill: #d62728; stroke: #d62728"/>
     <use xlink:href="#mf3f54591c4" x="255.356862" y="210.944195" style="fill: #d62728; stroke: #d62728"/>
     <use xlink:href="#mf3f54591c4" x="304.225" y="209.478321" style="fill: #d62728; stroke: #d62728"/>
     <use xlink:href="#mf3f54591c4" x="353.093138" y="205.476721" style="fill: #d62728; stroke: #d62728"/>
     <use xlink:href="#mf3f54591c4" x="401.961276" y="198.825828" style="fill: #d62728; stroke: #d62728"/>
     <use xlink:href="#mf3f54591c4" x="450.829415" y="189.589673" style="fill: #d62728; stroke: #d62728"/>
     <use xlink:href="#mf3f54591c4" x="499.697553" y="173.204212" style="fill: #d62728; stroke: #d62728"/>
     <use xlink:href="#mf3f54591c4" x="548.565691" y="148.60667" style="fill: #d62728; stroke: #d62728"/>
    </g>
   </g>
   <g id="patch_3">
    <path d="M 35.45024 248.975236 
L 35.45024 35.732595 
" style="fill: none; stroke: #000000; stroke-width: 0.8; stroke-linejoin: miter; stroke-linecap: square"/>
   </g>
   <g id="patch_4">
    <path d="M 572.99976 248.975236 
L 572.99976 35.732595 
" style="fill: none; stroke: #000000; stroke-width: 0.8; stroke-linejoin: miter; stroke-linecap: square"/>
   </g>
   <g id="patch_5">
    <path d="M 35.45024 248.975236 
L 572.99976 248.975236 
" style="fill: none; stroke: #000000; stroke-width: 0.8; stroke-linejoin: miter; stroke-linecap: square"/>
   </g>
   <g id="patch_6">
    <path d="M 35.45024 35.732595 
L 572.99976 35.732595 
" style="fill: none; stroke: #000000; stroke-width: 0.8; stroke-linejoin: miter; stroke-linecap: square"/>
   </g>
   <g id="text_16">
    <!-- Ocean dynamics -->
    <g style="fill: #ffffff" transform="translate(254.349062 29.732595) scale(0.12 -0.12)">
     <defs>
      <path id="DejaVuSans-4f" d="M 2522 4238 
Q 1834 4238 1429 3725 
Q 1025 3213 1025 2328 
Q 1025 1447 1429 934 
Q 1834 422 2522 422 
Q 3209 422 3611 934 
Q 4013 1447 4013 2328 
Q 4013 3213 3611 3725 
Q 3209 4238 2522 4238 
z
M 2522 4750 
Q 3503 4750 4090 4092 
Q 4678 3434 4678 2328 
Q 4678 1225 4090 567 
Q 3503 -91 2522 -91 
Q 1538 -91 948 565 
Q 359 1222 359 2328 
Q 359 3434 948 4092 
Q 1538 4750 2522 4750 
z
" transform="scale(0.015625)"/>
      <path id="DejaVuSans-63" d="M 3122 3366 
L 3122 2828 
Q 2878 2963 2633 3030 
Q 2388 3097 2138 3097 
Q 1578 3097 1268 2742 
Q 959 2388 959 1747 
Q 959 1106 1268 751 
Q 1578 397 2138 397 
Q 2388 397 2633 464 
Q 2878 531 3122 666 
L 3122 134 
Q 2881 22 2623 -34 
Q 2366 -91 2075 -91 
Q 1284 -91 818 406 
Q 353 903 353 1747 
Q 353 2603 823 3093 
Q 1294 3584 2113 3584 
Q 2378 3584 2631 3529 
Q 2884 3475 3122 3366 
z
" transform="scale(0.015625)"/>
      <path id="DejaVuSans-65" d="M 3597 1894 
L 3597 1613 
L 953 1613 
Q 991 1019 1311 708 
Q 1631 397 2203 397 
Q 2534 397 2845 478 
Q 3156 559 3463 722 
L 3463 178 
Q 3153 47 2828 -22 
Q 2503 -91 2169 -91 
Q 1331 -91 842 396 
Q 353 884 353 1716 
Q 353 2575 817 3079 
Q 1281 3584 2069 3584 
Q 2775 3584 3186 3129 
Q 3597 2675 3597 1894 
z
M 3022 2063 
Q 3016 2534 2758 2815 
Q 2500 3097 2075 3097 
Q 1594 3097 1305 2825 
Q 1016 2553 972 2059 
L 3022 2063 
z
" transform="scale(0.015625)"/>
      <path id="DejaVuSans-61" d="M 2194 1759 
Q 1497 1759 1228 1600 
Q 959 1441 959 1056 
Q 959 750 1161 570 
Q 1363 391 1709 391 
Q 2188 391 2477 730 
Q 2766 1069 2766 1631 
L 2766 1759 
L 2194 1759 
z
M 3341 1997 
L 3341 0 
L 2766 0 
L 2766 531 
Q 2569 213 2275 61 
Q 1981 -91 1556 -91 
Q 1019 -91 701 211 
Q 384 513 384 1019 
Q 384 1609 779 1909 
Q 1175 2209 1959 2209 
L 2766 2209 
L 2766 2266 
Q 2766 2663 2505 2880 
Q 2244 3097 1772 3097 
Q 1472 3097 1187 3025 
Q 903 2953 641 2809 
L 641 3341 
Q 956 3463 1253 3523 
Q 1550 3584 1831 3584 
Q 2591 3584 2966 3190 
Q 3341 2797 3341 1997 
z
" transform="scale(0.015625)"/>
      <path id="DejaVuSans-6e" d="M 3513 2113 
L 3513 0 
L 2938 0 
L 2938 2094 
Q 2938 2591 2744 2837 
Q 2550 3084 2163 3084 
Q 1697 3084 1428 2787 
Q 1159 2491 1159 1978 
L 1159 0 
L 581 0 
L 581 3500 
L 1159 3500 
L 1159 2956 
Q 1366 3272 1645 3428 
Q 1925 3584 2291 3584 
Q 2894 3584 3203 3211 
Q 3513 2838 3513 2113 
z
" transform="scale(0.015625)"/>
      <path id="DejaVuSans-20" transform="scale(0.015625)"/>
      <path id="DejaVuSans-64" d="M 2906 2969 
L 2906 4863 
L 3481 4863 
L 3481 0 
L 2906 0 
L 2906 525 
Q 2725 213 2448 61 
Q 2172 -91 1784 -91 
Q 1150 -91 751 415 
Q 353 922 353 1747 
Q 353 2572 751 3078 
Q 1150 3584 1784 3584 
Q 2172 3584 2448 3432 
Q 2725 3281 2906 2969 
z
M 947 1747 
Q 947 1113 1208 752 
Q 1469 391 1925 391 
Q 2381 391 2643 752 
Q 2906 1113 2906 1747 
Q 2906 2381 2643 2742 
Q 2381 3103 1925 3103 
Q 1469 3103 1208 2742 
Q 947 2381 947 1747 
z
" transform="scale(0.015625)"/>
      <path id="DejaVuSans-79" d="M 2059 -325 
Q 1816 -950 1584 -1140 
Q 1353 -1331 966 -1331 
L 506 -1331 
L 506 -850 
L 844 -850 
Q 1081 -850 1212 -737 
Q 1344 -625 1503 -206 
L 1606 56 
L 191 3500 
L 800 3500 
L 1894 763 
L 2988 3500 
L 3597 3500 
L 2059 -325 
z
" transform="scale(0.015625)"/>
      <path id="DejaVuSans-6d" d="M 3328 2828 
Q 3544 3216 3844 3400 
Q 4144 3584 4550 3584 
Q 5097 3584 5394 3201 
Q 5691 2819 5691 2113 
L 5691 0 
L 5113 0 
L 5113 2094 
Q 5113 2597 4934 2840 
Q 4756 3084 4391 3084 
Q 3944 3084 3684 2787 
Q 3425 2491 3425 1978 
L 3425 0 
L 2847 0 
L 2847 2094 
Q 2847 2600 2669 2842 
Q 2491 3084 2119 3084 
Q 1678 3084 1418 2786 
Q 1159 2488 1159 1978 
L 1159 0 
L 581 0 
L 581 3500 
L 1159 3500 
L 1159 2956 
Q 1356 3278 1631 3431 
Q 1906 3584 2284 3584 
Q 2666 3584 2933 3390 
Q 3200 3197 3328 2828 
z
" transform="scale(0.015625)"/>
      <path id="DejaVuSans-69" d="M 603 3500 
L 1178 3500 
L 1178 0 
L 603 0 
L 603 3500 
z
M 603 4863 
L 1178 4863 
L 1178 4134 
L 603 4134 
L 603 4863 
z
" transform="scale(0.015625)"/>
      <path id="DejaVuSans-73" d="M 2834 3397 
L 2834 2853 
Q 2591 2978 2328 3040 
Q 2066 3103 1784 3103 
Q 1356 3103 1142 2972 
Q 928 2841 928 2578 
Q 928 2378 1081 2264 
Q 1234 2150 1697 2047 
L 1894 2003 
Q 2506 1872 2764 1633 
Q 3022 1394 3022 966 
Q 3022 478 2636 193 
Q 2250 -91 1575 -91 
Q 1294 -91 989 -36 
Q 684 19 347 128 
L 347 722 
Q 666 556 975 473 
Q 1284 391 1588 391 
Q 1994 391 2212 530 
Q 2431 669 2431 922 
Q 2431 1156 2273 1281 
Q 2116 1406 1581 1522 
L 1381 1569 
Q 847 1681 609 1914 
Q 372 2147 372 2553 
Q 372 3047 722 3315 
Q 1072 3584 1716 3584 
Q 2034 3584 2315 3537 
Q 2597 3491 2834 3397 
z
" transform="scale(0.015625)"/>
     </defs>
     <use xlink:href="#DejaVuSans-4f"/>
     <use xlink:href="#DejaVuSans-63" transform="translate(78.710938 0)"/>
     <use xlink:href="#DejaVuSans-65" transform="translate(133.691406 0)"/>
     <use xlink:href="#DejaVuSans-61" transform="translate(195.214844 0)"/>
     <use xlink:href="#DejaVuSans-6e" transform="translate(256.494141 0)"/>
     <use xlink:href="#DejaVuSans-20" transform="translate(319.873047 0)"/>
     <use xlink:href="#DejaVuSans-64" transform="translate(351.660156 0)"/>
     <use xlink:href="#DejaVuSans-79" transform="translate(415.136719 0)"/>
     <use xlink:href="#DejaVuSans-6e" transform="translate(474.316406 0)"/>
     <use xlink:href="#DejaVuSans-61" transform="translate(537.695312 0)"/>
     <use xlink:href="#DejaVuSans-6d" transform="translate(598.974609 0)"/>
     <use xlink:href="#DejaVuSans-69" transform="translate(696.386719 0)"/>
     <use xlink:href="#DejaVuSans-63" transform="translate(724.169922 0)"/>
     <use xlink:href="#DejaVuSans-73" transform="translate(779.150391 0)"/>
    </g>
   </g>
   <g id="legend_1">
    <g id="patch_7">
     <path d="M 42.45024 102.445095 
L 133.136178 102.445095 
Q 135.136178 102.445095 135.136178 100.445095 
L 135.136178 42.732595 
Q 135.136178 40.732595 133.136178 40.732595 
L 42.45024 40.732595 
Q 40.45024 40.732595 40.45024 42.732595 
L 40.45024 100.445095 
Q 40.45024 102.445095 42.45024 102.445095 
z
" style="fill: #ffffff; opacity: 0.8; stroke: #cccccc; stroke-linejoin: miter"/>
    </g>
    <g id="line2d_40">
     <path d="M 44.45024 48.831032 
L 54.45024 48.831032 
L 64.45024 48.831032 
" style="fill: none; stroke: #1f77b4; stroke-width: 1.5; stroke-linecap: square"/>
    </g>
    <g id="text_17">
     <!-- GPU (H100) -->
     <g transform="translate(72.45024 52.331032) scale(0.1 -0.1)">
      <defs>
       <path id="DejaVuSans-47" d="M 3809 666 
L 3809 1919 
L 2778 1919 
L 2778 2438 
L 4434 2438 
L 4434 434 
Q 4069 175 3628 42 
Q 3188 -91 2688 -91 
Q 1594 -91 976 548 
Q 359 1188 359 2328 
Q 359 3472 976 4111 
Q 1594 4750 2688 4750 
Q 3144 4750 3555 4637 
Q 3966 4525 4313 4306 
L 4313 3634 
Q 3963 3931 3569 4081 
Q 3175 4231 2741 4231 
Q 1884 4231 1454 3753 
Q 1025 3275 1025 2328 
Q 1025 1384 1454 906 
Q 1884 428 2741 428 
Q 3075 428 3337 486 
Q 3600 544 3809 666 
z
" transform="scale(0.015625)"/>
       <path id="DejaVuSans-50" d="M 1259 4147 
L 1259 2394 
L 2053 2394 
Q 2494 2394 2734 2622 
Q 2975 2850 2975 3272 
Q 2975 3691 2734 3919 
Q 2494 4147 2053 4147 
L 1259 4147 
z
M 628 4666 
L 2053 4666 
Q 2838 4666 3239 4311 
Q 3641 3956 3641 3272 
Q 3641 2581 3239 2228 
Q 2838 1875 2053 1875 
L 1259 1875 
L 1259 0 
L 628 0 
L 628 4666 
z
" transform="scale(0.015625)"/>
       <path id="DejaVuSans-55" d="M 556 4666 
L 1191 4666 
L 1191 1831 
Q 1191 1081 1462 751 
Q 1734 422 2344 422 
Q 2950 422 3222 751 
Q 3494 1081 3494 1831 
L 3494 4666 
L 4128 4666 
L 4128 1753 
Q 4128 841 3676 375 
Q 3225 -91 2344 -91 
Q 1459 -91 1007 375 
Q 556 841 556 1753 
L 556 4666 
z
" transform="scale(0.015625)"/>
       <path id="DejaVuSans-28" d="M 1984 4856 
Q 1566 4138 1362 3434 
Q 1159 2731 1159 2009 
Q 1159 1288 1364 580 
Q 1569 -128 1984 -844 
L 1484 -844 
Q 1016 -109 783 600 
Q 550 1309 550 2009 
Q 550 2706 781 3412 
Q 1013 4119 1484 4856 
L 1984 4856 
z
" transform="scale(0.015625)"/>
       <path id="DejaVuSans-48" d="M 628 4666 
L 1259 4666 
L 1259 2753 
L 3553 2753 
L 3553 4666 
L 4184 4666 
L 4184 0 
L 3553 0 
L 3553 2222 
L 1259 2222 
L 1259 0 
L 628 0 
L 628 4666 
z
" transform="scale(0.015625)"/>
       <path id="DejaVuSans-29" d="M 513 4856 
L 1013 4856 
Q 1481 4119 1714 3412 
Q 1947 2706 1947 2009 
Q 1947 1309 1714 600 
Q 1481 -109 1013 -844 
L 513 -844 
Q 928 -128 1133 580 
Q 1338 1288 1338 2009 
Q 1338 2731 1133 3434 
Q 928 4138 513 4856 
z
" transform="scale(0.015625)"/>
      </defs>
      <use xlink:href="#DejaVuSans-47"/>
      <use xlink:href="#DejaVuSans-50" transform="translate(77.490234 0)"/>
      <use xlink:href="#DejaVuSans-55" transform="translate(137.792969 0)"/>
      <use xlink:href="#DejaVuSans-20" transform="translate(210.986328 0)"/>
      <use xlink:href="#DejaVuSans-28" transform="translate(242.773438 0)"/>
      <use xlink:href="#DejaVuSans-48" transform="translate(281.787109 0)"/>
      <use xlink:href="#DejaVuSans-31" transform="translate(356.982422 0)"/>
      <use xlink:href="#DejaVuSans-30" transform="translate(420.605469 0)"/>
      <use xlink:href="#DejaVuSans-30" transform="translate(484.228516 0)"/>
      <use xlink:href="#DejaVuSans-29" transform="translate(547.851562 0)"/>
     </g>
    </g>
    <g id="line2d_41">
     <path d="M 44.45024 63.509157 
L 54.45024 63.509157 
L 64.45024 63.509157 
" style="fill: none; stroke: #ff7f0e; stroke-width: 1.5; stroke-linecap: square"/>
    </g>
    <g id="text_18">
     <!-- H100 ×2 -->
     <g transform="translate(72.45024 67.009157) scale(0.1 -0.1)">
      <defs>
       <path id="DejaVuSans-d7" d="M 4488 3438 
L 3059 2003 
L 4488 575 
L 4116 197 
L 2681 1631 
L 1247 197 
L 878 575 
L 2303 2003 
L 878 3438 
L 1247 3816 
L 2681 2381 
L 4116 3816 
L 4488 3438 
z
" transform="scale(0.015625)"/>
      </defs>
      <use xlink:href="#DejaVuSans-48"/>
      <use xlink:href="#DejaVuSans-31" transform="translate(75.195312 0)"/>
      <use xlink:href="#DejaVuSans-30" transform="translate(138.818359 0)"/>
      <use xlink:href="#DejaVuSans-30" transform="translate(202.441406 0)"/>
      <use xlink:href="#DejaVuSans-20" transform="translate(266.064453 0)"/>
      <use xlink:href="#DejaVuSans-d7" transform="translate(297.851562 0)"/>
      <use xlink:href="#DejaVuSans-32" transform="translate(381.640625 0)"/>
     </g>
    </g>
    <g id="line2d_42">
     <path d="M 44.45024 78.187282 
L 54.45024 78.187282 
L 64.45024 78.187282 
" style="fill: none; stroke: #2ca02c; stroke-width: 1.5; stroke-linecap: square"/>
    </g>
    <g id="text_19">
     <!-- H100 ×4 -->
     <g transform="translate(72.45024 81.687282) scale(0.1 -0.1)">
      <use xlink:href="#DejaVuSans-48"/>
      <use xlink:href="#DejaVuSans-31" transform="translate(75.195312 0)"/>
      <use xlink:href="#DejaVuSans-30" transform="translate(138.818359 0)"/>
      <use xlink:href="#DejaVuSans-30" transform="translate(202.441406 0)"/>
      <use xlink:href="#DejaVuSans-20" transform="translate(266.064453 0)"/>
      <use xlink:href="#DejaVuSans-d7" transform="translate(297.851562 0)"/>
      <use xlink:href="#DejaVuSans-34" transform="translate(381.640625 0)"/>
     </g>
    </g>
    <g id="line2d_43">
     <path d="M 44.45024 92.865408 
L 54.45024 92.865408 
L 64.45024 92.865408 
" style="fill: none; stroke: #d62728; stroke-width: 1.5; stroke-linecap: square"/>
    </g>
    <g id="text_20">
     <!-- H100 ×8 -->
     <g transform="translate(72.45024 96.365408) scale(0.1 -0.1)">
      <use xlink:href="#DejaVuSans-48"/>
      <use xlink:href="#DejaVuSans-31" transform="translate(75.195312 0)"/>
      <use xlink:href="#DejaVuSans-30" transform="translate(138.818359 0)"/>
      <use xlink:href="#DejaVuSans-30" transform="translate(202.441406 0)"/>
      <use xlink:href="#DejaVuSans-20" transform="translate(266.064453 0)"/>
      <use xlink:href="#DejaVuSans-d7" transform="translate(297.851562 0)"/>
      <use xlink:href="#DejaVuSans-38" transform="translate(381.640625 0)"/>
     </g>
    </g>
   </g>
  </g>
  <g id="text_21">
   <!-- Time per step (msec) from 32×32 to 1024×1024 -->
   <g style="fill: #ffffff" transform="translate(140.534063 12.118365) scale(0.12 -0.12)">
    <defs>
     <path id="DejaVuSans-54" d="M -19 4666 
L 3928 4666 
L 3928 4134 
L 2272 4134 
L 2272 0 
L 1638 0 
L 1638 4134 
L -19 4134 
L -19 4666 
z
" transform="scale(0.015625)"/>
     <path id="DejaVuSans-70" d="M 1159 525 
L 1159 -1331 
L 581 -1331 
L 581 3500 
L 1159 3500 
L 1159 2969 
Q 1341 3281 1617 3432 
Q 1894 3584 2278 3584 
Q 2916 3584 3314 3078 
Q 3713 2572 3713 1747 
Q 3713 922 3314 415 
Q 2916 -91 2278 -91 
Q 1894 -91 1617 61 
Q 1341 213 1159 525 
z
M 3116 1747 
Q 3116 2381 2855 2742 
Q 2594 3103 2138 3103 
Q 1681 3103 1420 2742 
Q 1159 2381 1159 1747 
Q 1159 1113 1420 752 
Q 1681 391 2138 391 
Q 2594 391 2855 752 
Q 3116 1113 3116 1747 
z
" transform="scale(0.015625)"/>
     <path id="DejaVuSans-72" d="M 2631 2963 
Q 2534 3019 2420 3045 
Q 2306 3072 2169 3072 
Q 1681 3072 1420 2755 
Q 1159 2438 1159 1844 
L 1159 0 
L 581 0 
L 581 3500 
L 1159 3500 
L 1159 2956 
Q 1341 3275 1631 3429 
Q 1922 3584 2338 3584 
Q 2397 3584 2469 3576 
Q 2541 3569 2628 3553 
L 2631 2963 
z
" transform="scale(0.015625)"/>
     <path id="DejaVuSans-74" d="M 1172 4494 
L 1172 3500 
L 2356 3500 
L 2356 3053 
L 1172 3053 
L 1172 1153 
Q 1172 725 1289 603 
Q 1406 481 1766 481 
L 2356 481 
L 2356 0 
L 1766 0 
Q 1100 0 847 248 
Q 594 497 594 1153 
L 594 3053 
L 172 3053 
L 172 3500 
L 594 3500 
L 594 4494 
L 1172 4494 
z
" transform="scale(0.015625)"/>
     <path id="DejaVuSans-66" d="M 2375 4863 
L 2375 4384 
L 1825 4384 
Q 1516 4384 1395 4259 
Q 1275 4134 1275 3809 
L 1275 3500 
L 2222 3500 
L 2222 3053 
L 1275 3053 
L 1275 0 
L 697 0 
L 697 3053 
L 147 3053 
L 147 3500 
L 697 3500 
L 697 3744 
Q 697 4328 969 4595 
Q 1241 4863 1831 4863 
L 2375 4863 
z
" transform="scale(0.015625)"/>
     <path id="DejaVuSans-6f" d="M 1959 3097 
Q 1497 3097 1228 2736 
Q 959 2375 959 1747 
Q 959 1119 1226 758 
Q 1494 397 1959 397 
Q 2419 397 2687 759 
Q 2956 1122 2956 1747 
Q 2956 2369 2687 2733 
Q 2419 3097 1959 3097 
z
M 1959 3584 
Q 2709 3584 3137 3096 
Q 3566 2609 3566 1747 
Q 3566 888 3137 398 
Q 2709 -91 1959 -91 
Q 1206 -91 779 398 
Q 353 888 353 1747 
Q 353 2609 779 3096 
Q 1206 3584 1959 3584 
z
" transform="scale(0.015625)"/>
    </defs>
    <use xlink:href="#DejaVuSans-54"/>
    <use xlink:href="#DejaVuSans-69" transform="translate(57.958984 0)"/>
    <use xlink:href="#DejaVuSans-6d" transform="translate(85.742188 0)"/>
    <use xlink:href="#DejaVuSans-65" transform="translate(183.154297 0)"/>
    <use xlink:href="#DejaVuSans-20" transform="translate(244.677734 0)"/>
    <use xlink:href="#DejaVuSans-70" transform="translate(276.464844 0)"/>
    <use xlink:href="#DejaVuSans-65" transform="translate(339.941406 0)"/>
    <use xlink:href="#DejaVuSans-72" transform="translate(401.464844 0)"/>
    <use xlink:href="#DejaVuSans-20" transform="translate(442.578125 0)"/>
    <use xlink:href="#DejaVuSans-73" transform="translate(474.365234 0)"/>
    <use xlink:href="#DejaVuSans-74" transform="translate(526.464844 0)"/>
    <use xlink:href="#DejaVuSans-65" transform="translate(565.673828 0)"/>
    <use xlink:href="#DejaVuSans-70" transform="translate(627.197266 0)"/>
    <use xlink:href="#DejaVuSans-20" transform="translate(690.673828 0)"/>
    <use xlink:href="#DejaVuSans-28" transform="translate(722.460938 0)"/>
    <use xlink:href="#DejaVuSans-6d" transform="translate(761.474609 0)"/>
    <use xlink:href="#DejaVuSans-73" transform="translate(858.886719 0)"/>
    <use xlink:href="#DejaVuSans-65" transform="translate(910.986328 0)"/>
    <use xlink:href="#DejaVuSans-63" transform="translate(972.509766 0)"/>
    <use xlink:href="#DejaVuSans-29" transform="translate(1027.490234 0)"/>
    <use xlink:href="#DejaVuSans-20" transform="translate(1066.503906 0)"/>
    <use xlink:href="#DejaVuSans-66" transform="translate(1098.291016 0)"/>
    <use xlink:href="#DejaVuSans-72" transform="translate(1133.496094 0)"/>
    <use xlink:href="#DejaVuSans-6f" transform="translate(1172.359375 0)"/>
    <use xlink:href="#DejaVuSans-6d" transform="translate(1233.541016 0)"/>
    <use xlink:href="#DejaVuSans-20" transform="translate(1330.953125 0)"/>
    <use xlink:href="#DejaVuSans-33" transform="translate(1362.740234 0)"/>
    <use xlink:href="#DejaVuSans-32" transform="translate(1426.363281 0)"/>
    <use xlink:href="#DejaVuSans-d7" transform="translate(1489.986328 0)"/>
    <use xlink:href="#DejaVuSans-33" transform="translate(1573.775391 0)"/>
    <use xlink:href="#DejaVuSans-32" transform="translate(1637.398438 0)"/>
    <use xlink:href="#DejaVuSans-20" transform="translate(1701.021484 0)"/>
    <use xlink:href="#DejaVuSans-74" transform="translate(1732.808594 0)"/>
    <use xlink:href="#DejaVuSans-6f" transform="translate(1772.017578 0)"/>
    <use xlink:href="#DejaVuSans-20" transform="translate(1833.199219 0)"/>
    <use xlink:href="#DejaVuSans-31" transform="translate(1864.986328 0)"/>
    <use xlink:href="#DejaVuSans-30" transform="translate(1928.609375 0)"/>
    <use xlink:href="#DejaVuSans-32" transform="translate(1992.232422 0)"/>
    <use xlink:href="#DejaVuSans-34" transform="translate(2055.855469 0)"/>
    <use xlink:href="#DejaVuSans-d7" transform="translate(2119.478516 0)"/>
    <use xlink:href="#DejaVuSans-31" transform="translate(2203.267578 0)"/>
    <use xlink:href="#DejaVuSans-30" transform="translate(2266.890625 0)"/>
    <use xlink:href="#DejaVuSans-32" transform="translate(2330.513672 0)"/>
    <use xlink:href="#DejaVuSans-34" transform="translate(2394.136719 0)"/>
   </g>
  </g>
 </g>
 <defs>
  <clipPath id="p6e7383fd35">
   <rect x="35.45024" y="35.732595" width="537.54952" height="213.242641"/>
  </clipPath>
 </defs>
</svg>
